<?xml version="1.0" encoding="utf-8"?>
<svg version="1.1" id="Layer_1" xmlns="http://www.w3.org/2000/svg" xmlns:xlink="http://www.w3.org/1999/xlink" width="100px" height="100px" x="0px" y="0px"
	 viewBox="0 0 1523.945 1698.73" enable-background="new 0 0 1523.945 1698.73" xml:space="preserve">
<g>
	<path d="M1479.659,1303.063c-0.005-0.374-0.021-1.117-0.027-1.486c-1.373,1.571-2.602,3.254-3.821,4.948
		c-0.406-0.011-1.224-0.032-1.63-0.048c0.444-1.037,0.973-2.052,1.213-3.147c-1.769-0.043-2.592,1.828-3.714,2.885
		c-0.027,0.54-0.037,1.101-0.027,1.678c-0.812,1.117-1.662,2.212-2.405,3.382l-0.283,0.059c0.018-3.949,0.14-3.142,0.7-5.579
		c-1.822,1.747-3.933,3.131-5.958,4.622c-0.011,0.331-0.037,1.005-0.048,1.336c-2.56,2.528-5.077,5.183-8.352,6.781
		c-1.934,1.705-3.73,3.73-6.407,4.216c-14.876,11.031-14.905,12.146-16.742,13.936c-0.011,0.326-0.032,0.967-0.048,1.288
		c-0.722,0.411-1.432,0.828-2.121,1.266c-0.011,0.299-0.021,0.898-0.027,1.197c-0.925,0.524-1.726,1.208-2.479,1.95
		c-0.107-0.171-0.321-0.508-0.427-0.673c-0.588,1.421-1.833,2.362-2.816,3.495c0.08,0.176,0.235,0.534,0.315,0.716
		c-0.764,0.401-1.486,0.866-2.186,1.352c0.182,0.176,0.54,0.524,0.716,0.7c-1.031,0.283-1.763,1.01-1.828,2.111
		c-1.315,1.406-2.827,2.608-4.409,3.698c-1.566,2.166-8.804,12.439-11.409,12.36c-1.002-0.006-21.464,5.483-26.5,1.656
		c0.839-0.871,1.892-1.063,3.003-0.524l-0.07-0.86c0.63-0.037,1.283-0.059,1.951-0.059c1.603-0.951,2.613-2.495,3.719-3.933
		c1.844-1.272,4.034-2.009,5.814-3.409c0.299-0.059,0.903-0.171,1.202-0.23c0.454-0.502,0.919-0.989,1.411-1.453
		c0.31-0.043,0.93-0.128,1.24-0.166c0.219-0.203,0.663-0.599,0.882-0.802c4.434-0.357,12.943-7.989,14.46-11.468
		c-0.727,0.021-1.432,0.064-2.121,0.128c-2.544,2.063-3.933,5.269-6.829,6.909c-0.288,0.027-0.866,0.069-1.154,0.096
		c-0.86,0.663-1.747,1.283-2.613,1.929c-1.045,0.089-10.365,2.376-18.174,10.816c-5.425-0.18-7.644,0.653-11.286-0.983
		c-0.326-0.027-0.983-0.075-1.309-0.101v-0.385c2.624-0.331,5.21-2.154,7.887-0.769c0.262-0.331,0.545-0.647,0.85-0.935
		c0.288-0.016,0.866-0.053,1.149-0.07c1.79-1.389,3.575-2.805,5.536-3.949l0.059,0.807l0.684-0.027
		c-0.187-0.24-0.561-0.727-0.748-0.973c3.495-1.181,7.481-1.667,10.223-4.371c0.871,0.844,1.096-0.005,1.32-0.871
		c1.632-0.779,1.5-0.563,3.254-1.405c0.769-1.357,1.902-2.463,3.212-3.302c1.389-1.571,2.651-3.356,2.693-5.536
		c-2.166,1.746-5.495,6.205-8.481,8.855c-3.262,0.816-3.465,1.078-4.36,1.598c-2.282,0.176-4.2,1.609-6.45,1.913
		c-2.164,1.614-4.863,2.314-6.963,4.013c-0.283,0.037-0.839,0.107-1.122,0.144c-0.705,0.641-1.4,1.293-2.068,1.977
		c-4.874-0.158-4.634-3.645-14.316-8.267c-1.336-0.705-3.495-0.47-3.896-2.276c-0.695,0.438-1.357,0.924-1.651,1.742
		c-2.243-3.197-2.549-19.658-3.564-23.235c0.686-5.853-3.11-26.947-2.405-35.354c0.887-1.17-0.443-2.544,0.46-3.714
		c0.951,0.77,1.993,1.459,3.163,1.913c0.919-1.918-1.101-3.206-1.95-4.66c-1.523-1.796-0.924-4.243-0.957-6.37
		c0.166-0.214,0.502-0.641,0.668-0.855c-0.123-0.636-0.224-1.256-0.305-1.86c0.631-0.048,1.277-0.08,1.94-0.096
		c0.182,0.363,0.385,0.748,0.598,1.144c2.266,0.791,4.029,2.512,6.209,3.495c-0.016-0.529-0.048-1.592-0.064-2.122
		c-9.755-8.751-7.723-6.973-7.625-9.918c0.208-0.604,0.417-1.197,0.631-1.785c0.24-0.24,0.727-0.732,0.967-0.978
		c2.526,2.153,4.47,2.165,9.918,2.768c-1.427-1.956-3.997-2.025-6.092-2.725c-0.454-0.689-0.844-1.411-0.032-2.015
		c1.202,0.187,2.399,0.529,3.618,0.77c-1.341-2.426-3.874-3.783-5.916-5.52c-1.336-2.18,0.182-5.921,2.923-5.787
		c4.614-3.086-1.014,1.771,8.171-6.001c0.155-0.62,0.337-1.224,0.54-1.812c0.064,0.385,0.187,1.16,0.251,1.544
		c0.31-0.037,0.941-0.118,1.25-0.155c-0.075-0.294-0.23-0.876-0.31-1.17c0.812,0.256,1.641,0.545,2.48,0.834
		c1.195,0.83,7.939,2.849,15.684,3.025c0.021-0.267,0.053-0.802,0.075-1.063c1.095-0.021,2.207-0.037,3.334-0.032
		c-0.069-0.502-0.214-1.507-0.283-2.004c0.962,0.497,1.272-0.417,1.689-1.122c-1.705-1.063-3.49-1.993-5.082-3.196
		c4.949,0.192,3.757,1.698,6.594,3.185c0.363-1.256,1.293-2.121,2.373-2.789c-0.475-0.534-0.93-1.053-1.363-1.555
		c0.641,0.011,1.304,0.048,1.983,0.096c0.534,0.203,1.085,0.417,1.656,0.647c0.679,1.053,1.945,1.405,3.03,1.961
		c0.481-0.957,0.903-1.94,1.165-2.971c-1.56-0.465-3.057-1.095-4.606-1.528c0.941-1.25,2.351-1.592,3.874-1.443
		c0.016-0.251,0.048-0.759,0.064-1.01c0.358,0,1.063,0,1.416,0c0.235-0.684,0.508-1.341,0.786-1.988
		c-1.122-0.273-2.212-0.561-3.308-0.812v-0.406c0.39,0,1.181,0,1.576,0l0.037,0.502c0.342,0.016,1.021,0.054,1.363,0.07
		c3.281,2.372,8.17,4.807,13.338,5.942c0.668,0.502,1.363,0.989,2.079,1.491c0.689-0.005,1.389,0.005,2.121,0.037
		c0.401,0.604,0.962,1.09,1.555,1.56c2.364,0.357,0.939,0.397,3.831,0.545c-0.695-1.572-1.429-1.843-9.576-6.338
		c-0.272-0.043-0.823-0.118-1.095-0.155c-4.427-2.431-8.853-3.694-16.277-11.35c-0.037-0.577-0.059-1.138-0.053-1.683
		c-1.197-1.128-2.196-2.426-3.158-3.73c0.005-0.395,0.021-1.186,0.027-1.582c5.098,6.754,8.391,9.196,13.033,11.393
		c0.278,0.043,0.839,0.123,1.117,0.166c1.037,0.588,2.095,1.165,3.142,1.779c1.699,0.444,3.185,1.421,4.745,2.234
		c0.118,0.241,0.353,0.727,0.47,0.973c3.286,1.828,7.118,2.805,9.907,5.44c0.15-0.166,0.449-0.497,0.599-0.657
		c-2.57-2.843-5.397-5.402-8.694-7.358c-9.559-1.745-20.326-14.376-20.242-15.379c2.872,0.104,7.354,1.616,9.266,2.613
		c1.405-0.016,2.822,0.075,4.248,0.15c-0.016-0.684-0.016-1.352,0.005-2.009c-3.529-3.546-6.196-2.491-8.796-5.397
		c-2.343-0.634-2.053-0.617-4.852-0.7c0.331-0.171,0.999-0.502,1.331-0.668l0.037-0.326c-1.031-0.021-2.057-0.043-3.051-0.118
		c2.72-1.448,5.317,1.144,8.101,1.069c0.208-0.294,0.615-0.887,0.818-1.181c-0.021-0.957-0.027-1.897-0.011-2.822
		c-1.672-1.202-3.361-2.362-5.125-3.393c0.144-1.143,0.305-2.287,0.449-3.409c1.063,1.154,1.95,2.463,2.763,3.821
		c0.828,0.064,1.475,0.411,1.699,1.309l-0.85-0.15l-0.069,0.449c0.427,0.011,1.282,0.032,1.71,0.043
		c-0.037-0.973-0.059-1.934-0.064-2.875c-1.523-1.282-2.918-2.928-2.752-5.044c0.331,0,0.994,0.005,1.325,0.005
		c-0.144,0.182-0.433,0.534-0.572,0.711c0.182,0.593,0.363,1.202,0.561,1.828c0.46,0.454,0.935,0.919,1.438,1.4
		c0.016-0.315,0.048-0.951,0.059-1.266h0.502c-0.011,1.592-0.011,3.19,0,4.799c0.262,0.005,0.786,0.011,1.053,0.011l0.021-0.556
		l0.534,0.027l-0.027-0.577l0.759,0.096c-0.946,0.946-1.902,1.886-2.854,2.832c0.011,1.673,0.069,3.409-0.593,5.002
		c0.7,0.16,1.432,0.369,2.18,0.524c0.838-1.61,0.792-2.861,1.667-6.525c0.903-0.454,1.555-1.213,2.079-2.057
		c-0.593-1.021-1.138-2.052-1.699-3.067c0.315,0.016,0.951,0.043,1.272,0.053c-0.203-0.315-0.604-0.94-0.802-1.256
		c1.94,0.059,3.516,1.245,4.067,3.126c0.572,0.401,1.149,0.823,1.747,1.277c0.347,0.005,1.042,0.011,1.395,0.016
		c-1.539-2.87-3.773-5.285-5.921-7.695c-0.155-0.912-0.731-4.712-1.079-5.713c0.251,0.016,0.759,0.053,1.01,0.07
		c-0.011-1.202-0.016-2.394,0-3.575c0.267-0.225,0.802-0.663,1.069-0.882c-0.011-1.913-0.011-3.821,0-5.718l0.492,0.027
		c0.101,3.515,1.471,5.669-0.027,10.88c0.508-0.475,1.037-0.94,1.571-1.389c1.881-7.273-1.194-19.823-0.16-24.635
		c-0.018-0.112-0.391-9.794-0.251-10.522c1.892,1.331,2.816,3.511,3.874,5.488c0.23-0.176,0.684-0.529,0.908-0.705
		c-0.353-1.277-0.556-2.592-0.615-3.896c0.411,0.321,1.229,0.962,1.64,1.283c0.176-1.165,0.337-2.319,0.497-3.468
		c-0.64-1.402-0.787-1.687-1.085-3.789c1.892,0.983,3.292,2.677,5.045,3.901c1.197,1.528,2.1,3.286,3.324,4.831
		c0.508,0.31,1.031,0.636,1.571,0.973c1.149,2.923,3.131,6.151,6.52,6.61c1.518-0.989,0.465-2.859-0.214-4.024
		c-0.053-0.273-0.15-0.807-0.203-1.079c-1.683-1.4-1.977-4.003-4.168-4.804c-0.005-0.326-0.016-0.978-0.021-1.304
		c0.379-0.011,1.144-0.027,1.523-0.037c0.433,0.802,0.871,1.614,1.336,2.426c1.544,1.384,2.875,3.025,4.815,3.944
		c0.449-0.23,0.919-0.444,1.411-0.641c-0.048-1.934-0.518-3.799-1.544-5.44c-0.016-0.299-0.053-0.903-0.075-1.208
		c-0.828-0.753-1.688-1.464-2.629-2.025c-0.011-0.331-0.027-0.994-0.032-1.32l0.224,0.096c2.464,2.351,4.922,4.713,7.316,7.145
		c-0.273-3.874-4.019-10.847-4.5-11.847c-2.33-2.469-6.081-4.703-5.76-8.555c0.636-0.433,1.293-0.839,1.918-1.309
		c-1.523-3.65-3.687-7.011-5.349-10.602c0.235-3.623-1.266-7.032-1.486-10.607c-1.433-2.721-3.14-4.449-3.66-7.348
		c-1.186-1.127-1.951-2.565-2.661-3.992c0.299,0,0.892,0,1.192,0.005c-0.208-3.083-3.084-10.299-3.543-11.302
		c-1.876-0.956-2.431-3.217-4.018-4.505c0.064-1.042,0.401-2.063,0.321-3.094c-0.305-1.069-0.748-2.111-0.54-3.222
		c0.299,0.005,0.903,0.016,1.202,0.021c-1.25-1.379-1.977-3.137-3.297-4.441c-1.063-1.16-2.806-2.202-2.212-4.013
		c0.759-0.16,1.523-0.321,2.319-0.465c-1.334-3.526-5.413-6.681-2.138-6.808c-0.053-0.208-0.15-0.63-0.203-0.844
		c-0.625-0.064-1.234-0.112-1.828-0.15c-0.615-0.85-1.197-1.699-1.705-2.586c0.887-0.604,1.779-1.208,2.699-1.774
		c-1.32-1.192-3.596-1.833-3.655-3.89c-1.144-1.192-2.549-2.073-3.741-3.185c0.545-0.753,1.534-0.63,2.362-0.737
		c-0.748-1.176-0.508-2.57-0.411-3.864c-2.341-1.94-3.837-4.649-5.707-6.995c-0.596-1.405-4.837-6.118-10.709-9.063
		c0.556-0.673,1.17-1.299,1.753-1.95c-6.33-5.941-5.331-8.283-9.052-9.533c-2.538-0.967-4.323-3.035-5.766-5.232
		c0.187-0.775,0.492-1.496,0.769-2.228c-1.11-2.847-0.192-2.706-5.509-5.285c-0.011-0.347-0.043-1.037-0.053-1.379
		c-0.534-0.166-1.042-0.315-1.528-0.449c-0.588,0.299-1.192,0.465-1.817,0.486c-0.273-0.556-0.502-1.106-0.7-1.646
		c-3.938-1.56-6.177-5.878-10.447-6.712c-1.496-1.539-2.725-3.425-4.67-4.43c-1.437-0.764-3.329-1.309-3.596-3.18
		c-0.251,0.064-0.753,0.198-1.005,0.262c-0.134-0.77-0.24-1.523-0.331-2.271c-1.742-1.454-3.933-2.175-6.07-2.763
		c-6.644-1.395-9.752-7.284-13.621-5.953c-0.214-0.187-0.641-0.556-0.855-0.743c-0.198,0.123-0.588,0.363-0.78,0.486
		c-1.085-0.23-1.779-0.914-2.079-1.94c-0.816-0.382-20.897-7.149-22.476-7.086c-1.125-0.745-13.573-2.758-14.578-2.886
		c-1.095-0.558-39.153-22.885-45.529-38.454c-0.783-1-58.718-81.899-71.628-89.118c-1.755-2.03-1.372-1.454-2.431-3.399
		c-3.867-2.531-37.212-32.128-45.865-35.589c-1.082-1.996-18.321-13.515-19.847-15.802c-0.251-0.011-0.754-0.037-1.005-0.048
		c-0.183-0.759-9.449-8.151-11.094-9.191c-0.653-1.895-24.475-19.43-25.677-19.799c-0.579-0.531-23.28-18.494-24.036-18.708
		c-2.948-3.037-25.032-19.113-46.704-44.065c-0.001-0.001-16.741-19.622-16.742-19.622c-26.219-32.561-27.558-36.461-27.558-36.461
		c-5.216-10.032-10.509-27.373-11.681-33.992c-0.807-1.662-1.256-3.458-1.379-5.29c0.721-0.043,1.459-0.07,2.202-0.091
		c0.112,1.496,0.289,2.992,0.598,4.467c0.892-2.792,0.89-1.773,2.116-4.991c-0.743-0.716-1.993-1.112-2.276-2.148
		c0.347-2.362,0.7-4.718,0.909-7.096c-1.063-3.694-0.798-4.456-1.272-6.605c0.155-0.518,0.326-1.031,0.502-1.534
		c1.272-1.571,0.556-3.831,1.897-5.392c0.15,2.159-0.171,4.36,0.337,6.493c2.838,8.423,3.111,8.765,3.009,10.388
		c0.31,0.005,0.93,0.021,1.245,0.027c-0.192-0.935-0.059-1.838,0.582-2.57c-0.224-2.309-0.433-4.622-0.524-6.936
		c-0.379-0.598-0.759-1.192-1.117-1.774c0.139-0.379,0.294-0.753,0.46-1.122c-0.442-0.376-1.747-7.435-1.902-8.005
		c-0.23-0.112-0.679-0.331-0.908-0.443c0.005-0.379,0.016-1.149,0.021-1.528c0.684-0.048,1.384-0.085,2.089-0.118
		c0.235,0.636,0.492,1.283,0.753,1.929c0.588,0.182,1.186,0.369,1.795,0.566c0.155,1.491-0.123,2.966-1.031,4.189
		c0.411,0.476,0.828,0.946,1.272,1.432c0.027,0.224,0.08,0.668,0.112,0.892c0.898-1.453,1.657-2.987,2.394-4.531
		c3.009,0.983,2.303,5.301,5.018,6.685c0.486-3.302-0.342-6.69-2.528-9.234c-0.337-0.021-1.021-0.064-1.363-0.086
		c1.112-7.56-3.725-9.587-0.839-12.991c1.288-2.223-0.086-4.804,0.62-7.139c1.133,1.186,1.683,2.747,2.485,4.147
		c0.689,0.219,1.411,0.347,2.17,0.39c-0.176-2.057-1.518-3.639-2.351-5.419c0.053-1.86,0.363-3.703,0.545-5.552
		c1.234,0.673,2.565,0.294,3.313-0.887c1.256-0.657,2.485-1.389,3.666-2.196c-0.214-1.181-1.17-2.485-0.625-3.612
		c1.844-0.454,1.86,2.041,2.624,3.169c0.791,0.62,1.571,1.261,2.383,1.881c-0.486-2.191-1.037-4.665-2.886-6.113
		c-1.512-0.834-3.548-2.111-3.313-4.061c1.779-0.395,2.565,1.619,3.842,2.469c0.497-0.524,1.01-1.042,1.528-1.555
		c-1.32-1.144-2.677-2.255-3.901-3.49c-1.733-8.918-0.584-2.636-2.907-8.94c0.23-0.593,0.47-1.186,0.721-1.769
		c1.86,1.603,3.783,3.425,6.359,3.677c-1.026-1.731-2.501-3.105-3.89-4.521c0.027-1.074,0.069-2.143,0.123-3.206
		c-2.53-1.968-2.744-1.281-1.272-4.344c-0.989-1.154-2.111-2.276-2.533-3.778c0.064-0.78,0.374-1.501,0.609-2.234
		c-1.76-3.319,0.157-0.624,1.539-9.378c1.234-0.892,2.479-1.779,3.511-2.918c0.369-0.027,1.106-0.08,1.475-0.107
		c0.011,0.401,0.032,1.213,0.043,1.614c0.347,0.449,0.7,0.903,1.063,1.363c1.475-1.635,2.458-3.57,2.645-5.787
		c0.732,0.577,1.587,0.951,2.533,1.069c-0.155-0.246-0.476-0.737-0.636-0.983c1.25-0.374,1.801-1.598,2.496-2.586
		c0.31-0.946,0.7-1.865,1.138-2.757c0.07-0.395,0.203-1.186,0.267-1.582c1.063,1.576,1.01,3.495,1.133,5.317
		c0.647-0.695,1.283-1.4,1.956-2.073c-0.059-0.524-0.107-1.031-0.144-1.534c-0.615-1.416-0.406-2.977-0.417-4.462
		c-0.267-0.219-0.812-0.663-1.085-0.882c0.011-0.759,0.037-1.507,0.086-2.255c0.502,0.679,0.994,1.373,1.496,2.079
		c0.043,0.278,0.118,0.844,0.16,1.127c1.284,2.413,2.101,10.288,6.06,12.691c0.732-0.951,1.427-1.94,2.127-2.923
		c1.379,1.042,2.073,2.661,3.083,4.024c0.63-0.23,1.277-0.454,1.924-0.679c-0.517-1.344-2.063-7.282-2.175-7.786
		c1.165,1.17,1.817,2.725,2.827,4.035c0.278-0.176,0.839-0.524,1.117-0.7c-1.333-5.063-0.842-2.65-4.793-6.888l-0.342,0.844
		c-0.679-0.823-1.32-1.662-1.918-2.528c-0.032-0.556-0.048-1.101-0.053-1.64c-0.935-1.17-1.769-2.415-2.522-3.698
		c0.198-0.636,0.395-1.272,0.599-1.908c0.524-0.059,1.063-0.118,1.619-0.171c0.887-0.353,1.844-0.411,2.805-0.476
		c0.999,1.213,2.063,2.383,3.233,3.447c1.832,5.974,5.092,6.049,7.262,7.006c-0.558,2.559-0.561,2.126-0.716,3.917
		c1.074,0.23,2.239,0.866,3.292,0.16c-0.043-1.502-0.043-2.998-0.011-4.494c0.764,0.353,1.539,0.716,2.325,1.074
		c0.732-0.192,1.486-0.337,2.25-0.465c0.224,0.294,0.663,0.876,0.887,1.165c0.299,0.021,0.903,0.053,1.202,0.07
		c1.015,0.759,2.127,1.464,2.773,2.613c1.101,0,2.218-0.005,3.34-0.011c-0.016-0.604-0.021-1.197-0.011-1.785
		c-2.632-2.607-5.983-4.046-3.19-4.296v-0.091c-0.246-0.107-0.732-0.321-0.978-0.428c-0.005-1.523,0.401-3.34-0.924-4.457
		c-0.171-0.449-0.326-0.892-0.46-1.331c-1.656-1.161-5.918-16.56-5.269-17.72c1.021-2.25,1.224-5.552-1.133-7.027
		c-0.866-0.93-1.881-1.699-2.725-2.634c0.775-0.331,1.576-0.652,2.373-0.962c0.742-3.857,0.617-1.315,0.54-6.482
		c-1.09-1.432-1.806-3.121-3.137-4.355c-0.032-1.512-0.032-3.019-0.021-4.526c0.342,0,1.026,0.005,1.373,0.011
		c0.599,1.001,2.688,5.524,7.663,9.122c1.304,0.187,2.629,0.283,3.928,0.631c-4.626-1.467-9.202-12.949-12.724-17.864
		c-1.619,0.257-2.747-0.882-3.831-1.849c-0.289,0.251-0.871,0.748-1.16,0.999c-0.615-0.428-1.218-0.844-1.817-1.245
		c0.176-0.198,0.374-0.39,0.588-0.572c0.476,0.182,1.421,0.54,1.897,0.716c-0.157-0.706-6.151-9.325-8.363-11.168
		c-0.192-0.08-0.577-0.24-0.769-0.321l0.048-0.331c0.192-0.011,0.577-0.027,0.77-0.032c0,0-0.983-15.854-0.983-15.855
		c-0.235-0.214-0.716-0.641-0.956-0.85c-0.516-3.163-0.162-2.931-1.085-5.007c-0.053-0.727-0.086-1.448-0.096-2.164
		c-0.257-0.219-0.764-0.647-1.015-0.866c-0.027-0.289-0.08-0.86-0.107-1.149c-0.331-0.732-0.62-1.47-0.919-2.196
		c0.091-0.166,0.267-0.502,0.353-0.673c-0.08-0.198-0.241-0.593-0.321-0.791c1.173-4.018,0.413-1.31,0.903-3.19
		c-0.566-1.71-1.299-3.383-1.512-5.189c-0.219-0.176-0.663-0.524-0.882-0.695c-0.631-1.502-4.061-7.797-5.039-9.571
		c0.086-0.529,0.23-1.047,0.438-1.544l-0.385,0.021l-0.134,0.892c-1.034-2.496-0.938-2.539-1.074-3.297
		c-0.529-0.951-1.079-1.892-1.48-2.896c1.031-0.882,1.373-2.159,1.058-3.463c-2.389-0.224-3.073-2.934-3.345-4.911
		c-0.385-0.433-0.764-0.86-1.128-1.288c0.374,0.016,1.128,0.043,1.502,0.059c0.94,0.759,1.908,1.512,2.966,2.132
		c0.422-0.278,0.85-0.561,1.277-0.86l-0.844-0.363c0.214-0.267,0.636-0.802,0.844-1.069c1.288,0.113,7.745,2.428,9.651,2.944
		c0,0,10.599,3.937,10.602,3.938c1.4,1.63,3.66,1.4,5.563,1.908c0.973,0.46,1.795,1.186,2.752,1.699
		c1.165,0.064,3.03,0.508,3.484-0.994c-1.721-0.748-3.404-1.576-5.034-2.495c0.005-0.315,0.011-0.946,0.011-1.261
		c-0.641-0.385-1.256-0.78-1.854-1.186c-1.94-0.416-4.205-0.953-6.402-2.228c-0.299-0.021-0.898-0.07-1.197-0.096
		c-0.214-0.24-0.641-0.727-0.855-0.972c-1.806,0.144-3.409-0.657-4.895-1.56c-0.273-0.053-0.823-0.16-1.095-0.214
		c-3.129-1.703-4.094-1.834-5.456-2.127c-0.663-0.679-1.315-1.352-1.956-2.025c-0.358-0.005-1.069-0.027-1.427-0.032l0.054-0.631
		c2.58,0.371,2.24,0.309,4.339,1.24c-0.192,0.251-0.577,0.754-0.77,1.005l0.753,0.016l-0.144-0.609
		c0.385,0.027,1.149,0.075,1.534,0.096c0.208,0.262,0.631,0.78,0.844,1.037c0.631-0.005,1.277-0.005,1.934,0
		c0.016,0.267,0.048,0.802,0.064,1.069c0.625-0.005,1.261-0.005,1.913,0c0.219,0.24,0.652,0.727,0.866,0.973
		c4.903,0.735,2.263,1.138,7.604,1.817c1.24,0.625,2.49,1.25,3.725,1.918c3.599,0.791,3.44,1.501,6.493,2.415
		c0.47,0.363,0.951,0.732,1.448,1.101c-0.155-0.406-0.46-1.219-0.614-1.625c0.085-0.128,0.262-0.385,0.347-0.513
		c-3.768-1.925-6.748-4.524-9.79-5.119c-2.132-1.19-4.717-2.174-6.963-2.677c-8.582-4.575-13.862-4.774-14.439-6.829
		c-1.101-0.011-2.196-0.016-3.276-0.016c-0.481-0.54-0.951-1.069-1.411-1.603c4.594,0.082,2.727-0.396,6.797,2.031
		c4.992,0.323,0.749,2.641,10.49,0.476c0.107-0.951,0.224-1.897,0.363-2.843c0.716,0.037,1.48,0.096,2.223,0.166
		c-1.71-0.582-2.822-2.063-2.512-3.896c-0.593,0.363-1.197,0.716-1.769,1.079c0.347,1.646-0.732,2.966-1.667,4.179
		c-0.78-0.134-1.528-0.267-2.282-0.406c-1.704,0.858-1.821,0.169-6.284-2.715c-2.522-0.62-4.863-1.763-7.326-2.522v-0.331
		c0.315-0.005,0.94-0.021,1.256-0.032c-1.202-0.753-2.287-1.683-3.11-2.838c1.16,0.305,2.244,0.866,3.18,1.635
		c1.079,0.278,2.164,0.561,3.27,0.802c0.775,0.433,1.555,0.871,2.346,1.315c0.011-0.47,0.021-1.405,0.032-1.876
		c-1.389-1.111-2.998-1.87-4.558-2.683c-0.289-0.027-0.876-0.08-1.165-0.107c-0.721-0.524-1.421-1.047-2.084-1.614
		c0.924,0.021,1.913,0.053,2.8,0.444c0.502,0.053,1.026,0.107,1.56,0.16c0.112-0.299,0.331-0.893,0.444-1.186
		c0.748,0.283,1.459,0.668,2.191,1.042c0.289,0.037,0.866,0.112,1.154,0.15c1.763,1.491,2.848,3.521,3.826,5.573
		c0.027,0.289,0.086,0.876,0.112,1.17c0.246,0.208,0.737,0.631,0.983,0.844c0.048,0.299,0.144,0.898,0.187,1.197
		c1.266,0.657,2.592,1.785,3.992,0.721c0.198-0.721,0.417-1.427,0.663-2.132c-0.973-0.588-1.758-0.582-1.86,0.77
		c-0.652-0.406-1.299-0.818-1.924-1.229c-2.045-8.566-5.089-8.678-9.79-10.458c-2.795,0.16-6.119,0.636-8.336-1.437
		c0.909-0.262,1.833-0.502,2.773-0.721c-0.427-0.572-0.844-1.149-1.245-1.721c-0.021-0.289-0.064-0.86-0.091-1.149
		c-0.855-1.149-1.571-2.405-1.972-3.783c1.144-0.267,2.426,0.027,2.704,1.4c0.267-0.337,0.54-0.679,0.823-1.015
		c-0.032-0.839-0.053-1.678-0.069-2.512c-2.116-1.988-4.879-3.233-6.739-5.467c-0.919,0.417-1.844,0.807-2.757,1.202
		c-0.059,0.593-0.107,1.192-0.144,1.79c-0.192,0.182-0.577,0.54-0.764,0.721c-0.876-0.93-1.918-1.844-1.982-3.212
		c-0.78-0.903-1.576-1.78-2.346-2.677c0.444-0.219,1.325-0.647,1.763-0.866c-0.818-0.545-1.646-1.063-2.479-1.56
		c-0.016-1.464,0.048-2.928-0.059-4.387c-0.283-2.025-2.741-3.158-2.635-5.28c0.299-0.225,0.898-0.673,1.197-0.898
		c-1.037-1.769-2.57-3.03-4.414-3.863c-0.262-1.09,0.529-1.918,1.379-2.448c1.304,1.721,2.789,3.591,5.178,3.628
		c-0.019-4.579-6.421-5.037-3.773-8c1.726,1.261,3.153,2.886,4.649,4.414c0.636,1.197,1.111,2.511,2.18,3.441
		c-0.011,0.337-0.027,1.005-0.037,1.341c0.187,0.331,0.566,0.994,0.753,1.325c0.31-0.743,0.625-1.48,0.946-2.218
		c-1.576-1.202-1.844-3.276-2.378-5.05c-0.424-0.408-6.792-6.831-7.129-7.305c0.395-0.182,1.186-0.545,1.576-0.727
		c-0.347-0.668-1.234-1.256-0.705-2.116c2.896-0.134,3.858,3.078,5.6,4.783c0.23,0.016,0.684,0.048,0.908,0.064
		c-0.604-0.951-0.55-2.057-0.582-3.132c-0.673-0.342-1.363-0.62-2.031-0.914c-0.043-0.31-0.128-0.93-0.166-1.24
		c-1.106-1.058-2.105-2.218-2.998-3.452c2.998-1.774,6.038,1.24,9.165,0.155c1.341,0.721,2.779,1.245,4.243,1.689
		c-4.322-4.508-9.532-5.822-11.735-5.493c-1.598-0.615-3.206-1.496-4.97-1.112c-0.374-0.363-0.737-0.721-1.085-1.074
		c-0.888-24.143-3.19-29.359-3.19-29.359c-0.347,0.005-1.037,0.016-1.384,0.021c-0.823-0.876-1.635-1.758-2.41-2.661
		c-0.251-0.016-0.748-0.048-0.999-0.064c-1.79-5.28-9.028-8.938-13.13-10.597c-0.411,0.102-1.24,0.294-1.657,0.39
		c-0.299-0.486-0.561-0.978-0.796-1.486c-21.843-11.46-13.545-1.675-24.143-10.677c-0.059-0.321-0.187-0.957-0.246-1.277
		c-1.518-0.796-3.03-1.587-4.526-2.405c-0.92-1.592-2.086-2.856-4.104-3.607c-1.817-3.206-4.141-6.247-7.524-7.909
		c-2.485-3.27-6.583-5.141-10.688-4.734c-0.187-0.625-0.358-1.25-0.513-1.876c0.401-0.021,1.197-0.064,1.598-0.085
		c-0.417-0.577-0.834-1.17-1.213-1.753c-0.796,0.021-1.587,0.043-2.362,0.07c-0.15-0.684-0.294-1.363-0.422-2.041
		c-1.47,0.15-3.185,1.047-4.403-0.182c-1.592-0.994-2.57-3.441-4.751-3.019c-2.652,0.118-4.594,5.573-7.807,3.19
		c4.377-5.708-0.013-3.316,4.254-8.315c0.075-2.357,0.775-4.622,1.063-6.952c-1.913-1.079-4.355,1.122-5.905-0.46
		c0.786-1.625,1.576-3.944,3.714-4.061c0.048-0.657,0.102-1.309,0.166-1.961c-8.646-9.551-4.214-4.338-7.952-7.385
		c-1.815,0.186-0.904,0.071-2.715,0.23c-0.278-0.508-0.561-1.01-0.807-1.512c-1.325-0.15-2.934,0.39-4.013-0.583
		c0.192-0.55,0.428-1.09,0.695-1.619c-1.828-0.695-4.163-0.892-5.606,0.668c0.385,0.053,1.154,0.171,1.539,0.23
		c-0.182,0.198-0.545,0.598-0.727,0.796c0.192,0.187,0.577,0.561,0.769,0.748c-0.31,0.005-0.919,0.011-1.229,0.016
		c-0.016,0.262-0.053,0.786-0.069,1.042c-0.246,0.021-0.743,0.064-0.994,0.085c0.449-0.994,0.502-2.079,0.545-3.147
		c-1.069-0.053-2.127-0.102-3.174-0.134c-0.064,0.812-0.123,1.63-0.187,2.447c-1.117-0.716-1.587-2.004-2.207-3.105
		c-0.433,0.738-0.924,1.437-1.496,2.063c0.091-0.946,0.315-1.87,0.566-2.784c-1.447,0.534-3.278,1.378-3.281,1.379l0.812-0.989
		c-1,0.73-1.196,0.394-4.911-3.564c-1.726,0.342-3.527,0.62-5.205-0.043c-1.112-0.107-2.431-0.449-2.18-1.844
		c-0.171,0.171-0.513,0.513-0.684,0.684c-0.021-0.353-0.059-1.053-0.075-1.405c-1.389-1.368-2.629-2.971-4.494-3.714
		c-3.07-4.565-5.962-4.293-7.535-6.477c-1.619-0.807-2.773-2.218-3.805-3.644c1.111-1.659-1.6-4.675-3.27-5.745
		c-2.159,0.166-4.275,0.556-6.375,1.069c0,0,24.332-40.266,21.215-51.663c-1.539,0.459-3.089,0.887-4.676,1.063
		c-2.385,1.664-11.095,10.768-15.753,12.526c-0.385,0.679-0.759,1.363-1.128,2.041c-1.544,0.999-3.313,1.747-4.467,3.228
		c-0.7,0.31-1.395,0.614-2.079,0.919c-0.102,0.326-0.305,0.983-0.406,1.309c-1.176,0.566-2.362,1.095-3.538,1.63
		c-1.48-0.112-2.891,0.315-3.848,1.475c-1.331,0.508-2.661,1.015-3.992,1.507c-3.121,2.367-7.412,2.442-10.495,4.948
		c-1.983-0.481-3.58,0.78-4.927,2.041c-1.795,0.764-3.281,2.041-4.927,3.041c-1.17,0.283-2.084,1.037-2.816,1.951
		c-2.041-0.23-3.137-2.084-4.478-3.388c-0.513-1.689-1.956-2.72-3.377-3.607c-0.823-0.118-1.721-0.085-2.357-0.695
		c-10.839-8.497-22.604-8.27-24.25-9.01c-0.588-0.075-1.165-0.155-1.731-0.24c0.427,0.486,2.036,0.748,1.047,1.603
		c-1.063,0.417-2.191,0.609-3.292,0.839c2.902-0.497,5.702,0.679,8.609,0.492c1.491,1.79,4.537,0.641,5.6,2.832
		c-1.496-0.465-3.126-0.321-4.553-0.999c-0.561,0.262-1.117,0.54-1.646,0.823c-1.149-0.134-2.805,0.395-3.142-1.128
		c-2.688-0.102-5.312,0.566-7.978,0.732c-0.224,0.288-0.673,0.866-0.898,1.154c-1.101,0.016-2.196,0.021-3.286,0.032
		c-0.24-0.294-0.716-0.882-0.956-1.176c-1.181,0.305-2.346,0.652-3.506,0.994c-6.164-5.39-27.825-35.875-27.884-35.931
		c-5.113-12.904-6.848-13.707-8.812-15.486c-1.074,0.011-2.143,0.011-3.201,0.005c0.49,13.925,3.037,10.437,4.035,17.378
		c0.251,0.23,0.748,0.689,0.999,0.924c-0.214,1.01-1.037,1.571-1.844,2.095c0.246,0.123,0.732,0.369,0.978,0.492
		c-0.46,0.871-0.187,1.619,0.476,2.239c0.629,2.215,2.366,7.923,0.802,9.635c-0.137,8.036,3.622,14.285,2.549,18.725
		c0.732,0.941,1.448,1.897,2.191,2.832c0.037,0.732,0.075,1.464,0.128,2.202c-0.235,0.246-0.711,0.743-0.946,0.994
		c-6.87,2.308-12.958,5.792-13.958,6.642c3.638-0.536,3.266-0.655,5.248-1.4c-0.999,1.721-2.757,2.805-4.574,3.489
		c0.481,0.027,1.438,0.086,1.913,0.118c0.086,1.074,0.224,2.154,0.203,3.233c-1.202,0.743-2.538,1.293-3.532,2.33
		c-0.577-0.123-1.144-0.257-1.699-0.395c-0.342,0.15-0.673,0.305-0.994,0.459c0.235,0.251,0.711,0.743,0.951,0.989
		c-0.823,1.566-3.067,1.71-4.622,2.26c-1.028,0.971-10.09,6.819-10.159,3.864c-0.591,0.681-16.431,7.296-17.234,8.411
		c-0.128,0.807-0.262,1.614-0.428,2.415c0.641,0.946,1.304,1.908,2.26,2.576c0.315-0.989,0.641-1.977,0.924-2.982
		c0.235-0.005,0.711-0.011,0.951-0.016c-0.999,2.025-0.283,4.35,1.544,5.616c-0.027-0.374-0.08-1.117-0.112-1.491
		c-0.401-0.887-0.422-1.865-0.481-2.811c0.802-1.176,1.699-2.303,2.87-3.137c-0.502,1.256-1.347,2.319-2.341,3.222
		c1.215,7.814,0.661-1.177,1.165,9.277c-1.421-1.053-2.618,0.679-3.799,1.272c-1.833,1.01-1.17,3.377-0.994,5.039
		c0.267,0.208,0.807,0.631,1.079,0.844c-1.496,2.549-4.371,3.768-7.166,4.254c-0.016,1.336,0.978,2.196,2.298,2.132v0.401
		c-0.411-0.016-1.234-0.053-1.646-0.07c-0.684,1.267,0.064,2.634,0.192,3.938c0.615-0.187,1.24-0.385,1.87-0.583
		c0.385,0.395,0.775,0.791,1.176,1.186c0,0.764,0.005,1.528,0.027,2.292c-0.834,0.759-1.699,1.486-2.661,2.063
		c-0.027,0.513-0.043,1.021-0.053,1.534c-0.962,0.577-1.817,1.298-2.64,2.047c-0.011,0.31-0.027,0.935-0.037,1.245
		c-0.342,0.38-0.668,0.759-0.989,1.144c3.04,5.227-0.901,19.727-3.559,24.458c-3.975,17.644-29.288,41.28-45.267,55.281
		c-0.224,0.492-0.438,0.989-0.641,1.486c-11.399,9.401-20.486,21.797-22.059,23.705c-1.721,0.951-3.206,2.271-4.986,3.137
		c-1.229,2.105,0.064,4.622-0.032,6.893c-11.955,17.071-10.38,40.864-0.545,55.789c4.021,5.964,13.685,8.642,14.685,9.325
		c11.794,8.237,12.745,6.862,17.196,7.898c1.705-1.833,4.393-1.582,6.674-1.667c2.282-1.256,4.959-1.192,7.476-1.47
		c1.555-1.101,2.875-2.522,4.51-3.538c0.096,0.989,0.176,1.983,0.267,2.977c1.785-0.187,3.58-0.321,5.376-0.444
		c1.956-2.618,5.338-3.628,7.15-6.423c3.959-11.536,3.337-14.872,7.658-15.331c40.872-17.729,66.932-15.003,83.646-26.553
		c3.773-0.599,7.679,0.037,11.468-0.759c0.049,3.992-6.847,15.502-9.133,19.767c0.15,0.235,0.454,0.711,0.609,0.946
		c-1.002,0.732-13.22,26.897-13.381,30.689c-3.594,3.036-7.565,15.202-8.074,16.202c-33.395,63.627-111.508,95.95-125.183,127.545
		c-0.411,0.957-1.24,1.625-1.951,2.357c-0.444,1-9.378,16.725-11.649,23.844c-7.177,0.64-24.127,2.507-29.236,1.176
		c-0.091,0.112-0.273,0.337-0.363,0.449c-1.294-2.433,0.9-0.094-7.519-5.173c-37.586-27.394-36.155-27.513-47.046-26.58
		c-0.935-0.588-1.79-0.326-2.383,0.566c-1.197,0.182-2.699-0.144-3.447,1.063c-0.764-0.118-1.534-0.246-2.287-0.353
		c-1.77,0.759-16.561,0.638-17.982,0.219c-0.118,0.15-0.358,0.438-0.476,0.582c-0.235-0.219-0.7-0.668-0.935-0.887
		c-1.892,0.545-3.864,0.39-5.803,0.449c-1.641,0.037-2.934,1.224-4.499,1.582c-0.166,0.182-0.502,0.545-0.668,0.727
		c-1.047,0.182-2.095,0.379-3.131,0.593c0,0-20.759,24.195-20.76,24.197c-0.182,0.027-0.534,0.08-0.716,0.107
		c-0.994,0.999-2.132,1.822-3.377,2.479c-1.544-0.86-3.329-0.727-5.018-0.978c-1.507-0.844-3.206-1.176-4.916-1.154
		c-4.355-1.699-9.138-1.876-13.552-3.399c-0.257,0.021-0.78,0.064-1.037,0.085c-2.462-1.298-13.508-2.509-15.62-2.239
		c-1.395-0.331-2.955-1.32-4.264-0.24c-0.192-0.267-0.582-0.796-0.78-1.063c-2.779-0.315-5.787,0.529-8.395-0.679
		c-3.184-0.167-18.275,0.342-22.711-0.433c-0.118,0.118-0.363,0.347-0.481,0.46c-2.015-0.198-4.157-0.502-6.001,0.534
		c-1.331-0.486-2.843-1.117-4.002,0.075c-0.198-0.091-0.593-0.273-0.786-0.363c-0.957,0.187-1.918,0.347-2.875,0.518
		c-0.256-0.262-0.775-0.786-1.031-1.053c-0.427,0.251-0.85,0.513-1.272,0.775c-1.534-0.251-2.939,0.427-4.211,1.202
		c-0.208-0.123-0.62-0.363-0.828-0.486c-0.957,0.604-1.918,1.197-2.821,1.876c-0.647,0.048-1.293,0.096-1.929,0.155
		c-0.134,0.107-0.395,0.326-0.529,0.433c-3.647,0.299-2.76,0.542-5.333,0.235c-0.422,0.123-0.844,0.251-1.261,0.385
		c-1.077-0.209-31.5-0.228-31.688-0.187c-1.122-0.898-2.26-0.139-3.425,0.128c-1.002-0.047-11.208-0.328-13.888-1.966
		c-2.87-0.16-5.793,0.278-8.603-0.481c-1.224-0.219-2.512-0.807-3.719-0.192c-6.179-1.618-18.215-1.299-19.216-1.079
		c-2.816-0.566-5.873,0.631-8.481-0.823c-0.155,0.176-0.465,0.529-0.62,0.705c-12.387-2.034-16.468-1.342-20.354-0.331
		c-0.273-0.15-0.812-0.443-1.085-0.593c-0.134,0.219-0.401,0.657-0.534,0.876c-1,0.105-8.001,1.455-8.721,2.244
		c-0.023,0.001-8.698,0.655-8.721,0.652c-0.529,0.353-1.058,0.721-1.582,1.09c-1.25-0.192-2.517-0.176-3.773-0.075
		c-0.556,0.203-1.117,0.379-1.694,0.524c-3.788-0.836-15.279-1.127-18.062-0.053c-1.002-0.062-22.796-1.05-26.131-0.401
		c-8.818,4.981-16.71,6.487-16.71,6.487c-0.372-0.096-13.538,2.305-14.14,2.367c-0.892,0.486-1.956,1.731-2.87,0.497
		c-1.886,0.823-3.922,0.583-5.862,0.102c-1.234,1.152-2.084,7.812-0.214,10.196c0.021,0.625,0.043,1.266,0.059,1.908
		c3.03,1.785,5.643,4.189,8.748,5.851c1.16,0.305,2.25,0.818,3.281,1.427c0.208,0.834,0.444,1.651,1.32,0.898
		c1.555,0.759,3.703,0.898,4.58,2.597c0.267,0.021,0.812,0.059,1.085,0.08c1.134,1.171,6.08,5.734,7.861,6.343
		c1.058,2.576,3.42,4.28,5.119,6.418c0.337,0.016,1.01,0.048,1.347,0.059c1.245,1.705,3.174,2.757,4.35,4.526
		c1.16,0.208,2.004,0.978,1.977,2.218c0.625,1.053,1.341,2.047,2.041,3.057c0.278,1.288,1.053,2.383,2.367,2.779
		c0.24,0.786,0.561,1.411,1.368,0.78c7.553,3.798,12.771,1.896,22.129,2.939c8.227-1.239,7.277-2.564,8.662-4.27
		c-0.021-0.176-0.059-0.529-0.08-0.705c0.903-1.651,1.512-3.607,0.882-5.456c0.321-0.919,0.401-1.886,0.192-2.832
		c3.121-10.664,1.253-6.952,2.421-11.938c0.721-0.775,1.379-1.608,2.159-2.324c0,0,2.738,1.378,7.155,1.79
		c1.546,0.623,1.339,1.377,12.772,0.529c1.608-0.615,2.896,1.731,4.393,0.518c1.945-0.748,3.34,1.208,4.649,2.303
		c13.975,6.638,59.235-5.886,71.387-2.389c6.764,1.168,28.248-0.256,31.582,0.887c1.309-0.283,2.699-0.679,4.013-0.182
		c3.217,1.373,6.787,0.31,10.137,1.101c0,0,13.36,2.474,13.359,2.474c17.541,5.486,10.997,5.044,19.553,7.62
		c1.154-0.182,2.624-0.892,3.57,0.182c-0.267,0.598-0.55,1.197-0.844,1.796c-1.347-0.043-2.319,0.802-3.27,1.614
		c-1.181,0.337-2.458,0.518-3.174,1.657c-3.42,0.602-12.494,6.947-13.13,13.739c-0.016,1.117-1.047,1.769-1.742,2.496
		c-0.769,2.182-0.96,4.38-1.304,14.369c0.064,0.16,0.192,0.481,0.251,0.641c-0.518,2.816,0.486,5.91-0.898,8.529
		c0.854,16.031-9.406,33.174-11.457,44.102c-2.244,5.342-0.104,7.984,2.004,18.559c0.737,9.555-1.317,24.547-0.951,34.12
		c13.027,3.536,58.492-27.314,61.052-44.529c1.55-5.83,0.908-11.997-0.262-17.843c3.017-4.174-4.618-11.915-9.02-13.311
		c-0.887-0.673-1.822-1.272-2.757-1.854c-1.272-0.337-2.544-0.673-3.832-0.914c0.545-1.384,1.224-2.709,1.988-3.976
		c1.373-0.764,2.325-2.02,3.377-3.137c0.358-1.464,0.812-2.891,1.341-4.291c3.101-1.946,1.392-1.288,4.622-2.442
		c0.176-0.251,0.529-0.748,0.705-0.999c9.437-1.223,5.919-9.514,7.7-12.52c39.665-26.905-5.675-26.782,96.038,6.883
		c1.628-1.407,50.134,14.968,51.134,15.411c2.811,2.447,5.675,4.857,8.165,7.647c1.437,0.866,3.27,1.112,4.403,2.474
		c2.341,1.16,4.82,1.956,7.284,2.816c2.982,0.968,8.51,8.458,11.222,9.902c0.053,0.31,0.16,0.935,0.219,1.245
		c2.26,1.838,4.222,4.051,6.637,5.702c0.486,1,12.684,19.968,27.804,34.12c7.07,8.728,10.951,23.525,23.689,24.416
		c0,0,7.499,16.603,49.675,63.975c2.82,5.083,58.368,59.517,61.036,64.681c0.235,0.123,0.716,0.363,0.951,0.486
		c0.109,0.174,8.647,8.565,9.651,9.116c2.207,2.72,4.922,4.964,7.177,7.652c0,0,76.68,76.306,84.597,79.569
		c1.63,1.641,3.821,2.544,5.536,4.104c0.331,0.011,0.999,0.032,1.336,0.043c15.126,11.058,60.614,41.072,60.614,41.072
		c2.97,1.07,73.144,40.87,99.992,49.141c2.051,5.601,8.462,7.477,9.555,8.641c1.318,4.332,4.183,2.841,8.112,6.599
		c0.019,1-7.761,34.369-5.376,45.812c0.214,0.839-0.037,1.662-0.305,2.474c7.363,25.558-5.216-4.119,12.51,30.663
		c1.737,2.773,2.314,6.284,4.857,8.523c0.791,0.625,1.026,1.603,1.293,2.56c0.452,0.579,4.134,17.48,12.825,26.639
		c2.104,3.197,14.262,39.148,20.606,42.109c-0.344,3.68,7.474,13.161,7.064,19.334c3.163,4.359,1.267,4.509,6.797,13.343
		c0.524,1.32-0.198,2.57-0.967,3.612c1.117,1.025,10.678,18.073,10.794,18.457c7.095,10.003,8.343,9.095,7.155,10.757
		c0.716,0.342,0.946,1.053,1.079,1.817c-7.696,0.992-14.255-25.939-22.134-30.411c-0.358,0.385-0.711,0.78-1.047,1.186
		c0.513,2.223,2.608,3.591,3.228,5.755c0.187,0.256,0.566,0.775,0.759,1.031c0,0,4.745,8.255,6.284,13.327
		c1.63,2.047,3.046,4.307,4.986,6.097c0.566,1.106,1.395,2.052,2.154,3.051c0.15,0.983-0.289,1.427-1.304,1.325
		c-0.001-0.001-17.009-20.317-17.009-20.317c-1.827-1.128-11.569-21.25-9.635-32.501c-0.379-0.021-1.138-0.069-1.518-0.091
		c-3.745,18.196,14.06,47.567,25.003,53.277c-0.198,0.636-0.075,1.464-0.561,2.009c-6.769-1.447-9.706-7.048-11.986-8.577
		c-0.833-2.214-11.654-16.86-17.736-20.263c0,0.951-0.363,1.849-0.775,2.709c2.06,1.406,13.404,13.75,13.354,15.876
		c-1.181,0.401-1.935-0.732-2.784-1.298c-6.275-9.129-12.624-13.919-13.541-14.92c-0.406,0.369-0.791,0.764-1.176,1.17
		c1.25,1.427,1.918,3.206,2.635,4.948c0.689,0.871,1.63,1.518,2.458,2.287c1.371,0.538,10.675,11.897,15.342,14.022
		c0.802,2.095,3.27,2.089,4.89,3.217c0,0-0.055,1.601,0.305,3.789c-1.058-0.978-1.918-2.111-2.875-3.153
		c0.636,2.141,0.926,1.751,1.828,5.296c-3.602-4.264-1.454-4.91-5.98-6.226c0.15,0.214,0.443,0.641,0.593,0.855
		c0.219-0.08,0.657-0.246,0.876-0.326c0.951,1.069,1.667,2.341,1.908,3.783c0.224,0.016,0.673,0.053,0.898,0.07
		c-0.011,0.908-0.016,1.817,0.005,2.757c-0.599-0.476-1.197-0.957-1.785-1.384c0.358,1.256,0.924,2.448,1.389,3.687
		c-7.15,2.262,2.135,0.301,5.953,13.354c0.677,1.001,5.252,9.284,5.237,10.693c-1.476-0.77-6.604-7.63-7.305-8.63
		c-3.318-1.266-4.847-4.734-7.604-6.717c-0.059-0.358-0.176-1.069-0.235-1.427c-0.994-1.373-1.63-2.944-2.26-4.494
		c-1.213-2.592-4.083-3.837-5.445-6.364c-0.401-1.86-1.56-3.463-1.726-5.365c-0.593,0.208-1.186,0.417-1.737,0.7
		c1.055,3.846,0.123-0.169,1.25,4.505c0.951,1.32,1.662,2.789,2.41,4.243c0.048,0.278,0.134,0.839,0.182,1.117
		c0.673,0.855,1.304,1.758,1.988,2.634c0.037,0.262,0.118,0.78,0.155,1.042c0.508,0.636,0.978,1.309,1.138,2.17
		c-3.562-2.701-2.596-5.557-4.825-6.979c-0.31-2.346-1.705-4.313-2.731-6.364c-0.032-0.294-0.091-0.876-0.118-1.17
		c-0.513-0.94-1.165-1.78-2.335-1.747c1.934,12.108,5.344,12.546,6.295,15.839c1.021,1.037,2.132,2.02,3.479,2.64
		c-0.011,0.278-0.037,0.839-0.048,1.117c1.347,1.031,2.993,1.662,4.173,2.939c-1.881-0.347-3.35-1.603-4.825-2.699
		c-0.273-0.069-0.818-0.214-1.09-0.283c-0.93-0.657-1.929-1.202-2.944-1.672c0-0.321,0-0.962,0-1.283
		c-2.191-0.481-4.59-0.807-6.135-2.613c0.603,3.917,7.417,11.787,9.026,13.13c-0.235,0.251-0.46,0.513-0.673,0.791
		c-2.025-2.442-3.986-4.932-5.851-7.497c-1.292,4.568-2.598,0.005-7.246-0.668c0.771,1.002,11.223,6.42,13.333,9.811
		c-0.321,1.539,1.32,2.624,2.057,3.821c0.572,0.444,1.122,0.914,1.678,1.453c0,0-9.305-8.783-17.672-12.451
		c0.46,1.411,2.137,1.833,2.683,3.222c2.803,1.161,10.577,7.068,11.74,9.736c-5.586-2.545-1.591-1.582-9.01-6.274
		c0,0-8.075-5.331-20.002-10.72c-0.342,0.31-0.668,0.641-0.967,0.994c1,0.353,11.781,4.765,13.407,7.214
		c1.019,0.352,12.77,8.849,13.114,9.127c0.39,0.037,1.176,0.107,1.566,0.144c1.438,1.299,4.179,1.405,4.478,3.639
		c0,0-36.617-12.29-50.327-11.943c0.021,0.155,0.059,0.465,0.08,0.62c0.16,0.08,0.481,0.23,0.647,0.31l0.283,0.31
		c6.514,0.121,29.08,7.06,30.08,7.93c4.948,2.232,11.467,3.29,8.331,5.119c-34.96-10.218-38.348-15.193-44.636-12.953
		c7.4,5.148,29.988,7.547,28.573,11.617c-15.549-0.264-13.329,0.219-20.317,4.959c1.63-0.866,3.356-2.143,5.285-1.347
		c1.603-0.572,3.308-0.62,4.991-0.78c0.16,0.288,0.476,0.866,0.631,1.16c0.219-0.24,0.647-0.716,0.86-0.951
		c2.965,0.5,18.313-0.66,23.983,1.48c9.817-1.286,15.723,8.227,23.582,11.2c2.757,1.304,6.054,1.603,8.229,3.965
		c2.143,1.357,4.307,2.912,6.792,3.586c0.005,0.171,0.011,0.513,0.011,0.684c4.839,2.015,2.756,1.824,8.881,4.409
		c1.299,0.032,2.602,0.048,3.917,0.075c0.027,0.262,0.07,0.775,0.091,1.037c-1.117-0.641-2.405-0.663-3.575-0.208
		c-0.572-0.16-1.138-0.31-1.683-0.438c-0.224-0.203-0.668-0.609-0.887-0.818c-1.519-0.731-0.797-0.484-2.196-0.77
		c-1.849-1.357-3.992-2.223-5.846-3.559c-0.272-0.043-0.818-0.128-1.095-0.171c-9.069-5.913-15.128-4.304-26.596-14.957
		c-1.128-0.278-2.25-0.524-3.367-0.738c1.651,1.913,4.585,2.907,5.114,5.622c3.64,2.553,15.782,8.088,18.404,10.03
		c1.544,0.433,3.062,0.999,4.548,1.651c0.16,0.251,0.492,0.753,0.652,1.005c1.646,0.705,3.415,1.411,4.435,2.998
		c-0.828-0.182-1.507-0.625-2.148-1.106c-31.228-9.295-30.981-18.428-35.071-21.418c-0.978-0.144-1.961-0.096-2.918-0.08
		c1.011,0.611,29.65,36.237,55.399,37.449c0.187-0.267,0.561-0.802,0.748-1.069c1.971,0.312,19.99,6.529,20.67,6.717
		c-0.235,0.657-0.465,1.331-0.684,2.02c-1.609,0.791-3.126,1.747-4.687,2.619c-0.064,0.513-0.118,1.042-0.16,1.592
		c-0.673,0.454-1.315,0.957-1.94,1.48c-2.806,1.005-5.087,2.992-7.465,4.724c0.764,0.278,1.56,0.593,2.357,0.887
		c0.001-0.001,14.31-10.933,14.311-10.933c0.315-0.032,0.946-0.096,1.261-0.128c0.144-0.288,0.433-0.871,0.577-1.16
		c1.112,0.016,2.234-0.048,3.367,0.064c0.818,0.641,0.711,1.646,0.524,2.581c-0.652,0.118-1.293,0.251-1.918,0.406
		c-1.117,1.806-3.564,2.351-4.286,4.403c-0.738,0.492-1.475,0.983-2.218,1.47c-2.596,3.833-2.234,2.211-4.478,6.177
		c-9.062,0.578-24.194-3.157-33.03-10.431l-0.166,0.994c-0.374-0.401-0.732-0.786-1.074-1.16c-0.283-0.048-0.85-0.144-1.138-0.198
		c-5.391-8.516-34.357-27.669-37.107-29.498c-3.712-6.666-3.182-3.022-5.638-11.858c-0.379-0.62-0.759-1.245-1.101-1.844
		c-0.262,0.155-0.786,0.465-1.042,0.62c0.513,2.399,2.763,8.577,3.046,9.362c0.647,0.775,1.325,1.555,1.624,2.57
		c-5.846-3.485-6.045-10.766-8.619-8.571c0.235,6.087,11.378,13.483,16.662,16.555c0.321,0.048,0.973,0.15,1.293,0.198
		c1.261,1.288,2.741,2.522,2.982,4.446c-0.256,0.155-0.759,0.465-1.015,0.62c7.032,13.181,8.298,8.209,13.199,15.251
		c1.502,0.834,2.677,2.33,4.451,2.613c1.555,1.031,3.26,2.036,4.131,3.783c0.219-0.214,0.668-0.641,0.887-0.855
		c0.411,0.155,1.229,0.465,1.641,0.62c3.589-0.354,11.727,0.897,10.196,4.195l0.449-0.075l0.048-0.727
		c2.046,0.542,2.014,0.892,3.965,1.4c4.325,2.325,17.219,3.692,21.156,4.922c4.692-0.593,9.41,0.085,14.027,0.999
		c-0.331,0.769-0.727,1.523-1.176,2.25c-0.385-0.027-1.144-0.069-1.528-0.091c-0.989,2.261-2.373,4.291-3.815,6.279
		c-0.711,2.02-1.015,4.195-1.993,6.14c0.187-0.064,0.566-0.198,0.753-0.262c1.56-4.948,4.868-9.004,8.267-12.814
		c1.881-1.176,3.965-2.068,6.236-1.63c-0.34,10.657-43.642,94.644-52.791,107.96c-14.788,19.124-13.324,35.612-13.557,46.347
		c-0.176,0.235-0.529,0.7-0.705,0.93c0.064,2.009,0.155,4.024,0.251,6.049c0,0.001-4.408,18.671-4.409,18.671
		c-0.15,0.198-0.449,0.588-0.593,0.786c-0.562,2.73-7.396,32.595-7.396,34.622c4.355,9.669,1.697,28.634,4.051,33.927
		c5.77-0.516,6.609-3.19,9.528-3.442c2.009-1.592,4.211-2.928,6.573-3.922c0.331,0.059,0.989,0.176,1.32,0.235
		c2.383-0.866,4.462-2.49,6.984-2.982c4.525-3.104,6.756-6.969,9.02-5.51c-0.021,0.593-0.203,1.192-0.326,1.812
		c1.544,1.053,2.057,2.918,3.158,4.355c3.308,0.743,7.048,0.021,10.196,1.678c2.597,0.257,5.21-0.417,7.797-0.7
		c10.053-5.277,20.81,0.307,23.117-5.194c0.86-2.095,2.709-3.457,4.254-5.023c-0.123-1.395-0.31-2.773-0.15-4.157
		c-1.053-3.078-1.325-7.016-4.606-8.63c-0.043-0.337-0.118-1.021-0.16-1.363c-0.208-0.267-0.636-0.807-0.844-1.074
		c6.259-13.407,15.219-14.438,18.543-15.684c0.321,0.016,0.967,0.048,1.288,0.064c2.904-2.212,4.004-5.768,9.704-6.578
		c3.593-2.838,9.86,1.653,13.418-5.75c0.835-11.428-0.148-12.916,1.694-16.117c0.21-1.002,11.29-45.305,13.653-49.772
		c0.604-3.158,2.335-6.049,1.983-9.357c1.573-2.632,12.106-33.918,13.081-40.142c1.593-0.86,2.105-2.453,1.902-4.179
		c4.661-8.519,17.278-60.845,26.917-75.603c6.822-10.047,11.099-19.25,11.949-41.297c-0.272-0.144-0.823-0.433-1.095-0.572
		c0.075-0.673,0.166-1.325,0.278-1.956c0.273-0.086,0.823-0.267,1.095-0.353c0.438-1.56,1.069-3.062,2.004-4.387
		c4.982-0.703,17.852-9.728,18.853-10.34c1.235-0.255,6.163-3.793,6.493-4.43c0.246-0.027,0.732-0.075,0.972-0.102
		c2.725-2.672,5.392-5.451,8.561-7.609c-0.294,0.721-0.705,1.4-1.154,2.057c-2.202,7.33-4.109,5.977-5.862,10.036
		c-0.24,0.155-0.721,0.465-0.962,0.62c-14.071,23.148-16.015,27.734-16.015,27.734c-2.431,1.196-10.416,18.741-11.644,21.151
		c-0.202,1.002-25.662,50.892,4.36,76.688c0.542-1.886-0.286-2.626-6.022-11.206c-13.404-21.113-1.009-54.673,1.87-58.691
		c1.128,1.631-2.716,12.559-3.612,17.586c0.267,0.358,0.556,0.732,0.86,1.122c0.292-0.956,3.587-9.877,3.548-11.062
		c6.26-12.406,1.696-8.456,7.444-22.299c1.603-1.25,8.749-14.576,9.993-16.181c0.166,0.08,0.497,0.23,0.657,0.305
		c6.978-16.856,6.226-12.895,20.873-34.248c11.352-20.736,15.272-18.862,20.285-24.544c0.55-0.128,1.112-0.235,1.694-0.326
		c5.827-3.879,1.921-5.958,8.978-6.573c0.86,3.35-2.88,4.927-4.259,7.454c-1.988,1.769-3.708,3.767-5.301,5.889
		c-5.221,2.607-6.218,11.098-11.58,14.011c0.866,0.064,1.737,0.182,2.645,0.203c1.026-1.464,1.967-2.998,3.222-4.286
		c0.577,0.337,1.165,0.684,1.774,1.053c-0.337-0.545-0.652-1.079-0.957-1.598c1.999-2.645,3.623-5.9,6.568-7.594
		c0,0,9.932-11.086,9.934-11.088c2.025,2.781-3.2,7.755-5.087,12.259c2.052-1.715,2.88-4.398,4.654-6.354
		c0.299,0.037,0.892,0.112,1.186,0.15c0,0.529,0.016,1.079,0.048,1.646c-1.117,1.063-1.817,2.453-2.827,3.607
		c0,0.001-24.399,40.9-24.4,40.901c-2.02,1.161-21.576,25.715-21.61,40.468c-1.427,2.667-1.876,5.691-1.849,8.694
		c-0.598,1.86-0.443,3.927-1.277,5.712c-11.098,11.785-8.676,13.708-7.588,19.179c0.438,0.86,0.839,1.731,1.266,2.64
		c0.738-4.024-0.759-8.272,0.839-12.141c2.089-1.822,3.297-4.435,4.446-6.899c0.224,0.112,0.673,0.337,0.898,0.449
		c0.22,1-2.964,24.411,10.516,33.992c-0.411-2.314-1.94-4.136-3.185-6.033c-16.512-24.185,7.138-56.239,8.47-63.12
		c1.25-2.287,1.165-5.226,3.083-7.113l0.219,0.818l0.411,0.08c-0.443-2.362,1.881-4.152,2.741-6.209
		c0.016,0.513,0.053,1.534,0.07,2.047c1.047-0.999,2.223-1.951,2.8-3.313c0.892,0.898,1.486-0.556,2.1-1.031
		c1.122-1.705,2.816-2.838,4.275-4.227c1.079,0.294,2.196,0.385,3.334,0.502c-0.417,0.572-0.834,1.144-1.234,1.737
		c-0.043,0.272-0.123,0.812-0.166,1.085c-2.501,2.87-4.35,6.241-6.583,9.314l-0.775-0.705c1.4,1.694-0.481,2.528-1.918,2.431
		c0,0.001-8.512,11.386-8.512,11.388c-1.713,1.24-6.534,9.722-5.467,13.429c1.95-2.362,2.212-5.573,3.826-8.123
		c5.108-8.018,4.078-1.699,10.495-10.399c0.609-0.021,1.015,0.299,1.224,0.962c1.149-1.651,1.993-3.521,3.441-4.943
		c0.032-0.283,0.096-0.85,0.128-1.133c2.202-1.859,3.345-4.542,4.809-6.952c0.024,0.529-1.338,4.22-1.79,6.06
		c-0.246,0.23-0.732,0.695-0.978,0.93l0.054-0.791l-0.534-0.059c0.721,0.893,0.358,1.78-0.449,2.464
		c-0.059,0.262-0.176,0.791-0.235,1.053c-0.635,1.182-3.61,10.362-3.415,11.601c-2.741,4.561-6.245,13.374-6.91,18.906
		c0.524-0.24,1.053-0.476,1.614-0.668c0.292-3.679,4.242-16.883,6.712-16.71c0-0.406,0-1.224-0.005-1.63c0.289,0,0.86,0,1.149,0
		c-0.593,1.085-0.663,2.202,0.176,3.206c-0.732,1.47-1.341,3.057-1.144,4.74c-2.667,4.91-1.714,8.846-2.367,12.654
		c1.678-0.604,1.817-2.565,1.908-4.067c0.15-3.452,2.501-6.338,2.549-9.806c0.896-3.074,1.761-8.19,2.057-10.452l0.481-0.027
		c0.214,12.795-1.06,8.676,3.682,14.583c0.224-1.106,0.427-2.212,0.567-3.308c0.123-0.219,0.369-0.652,0.492-0.866
		c-0.508-0.289-0.989-0.566-1.459-0.828c-0.059-1.619-0.508-3.163-0.983-4.687c0.184-1,0.845-6.676,1.315-7.898
		c0.037-0.561,0.08-1.106,0.139-1.625c0.433-0.567,0.908-1.085,1.448-1.539c0.07-1.416,0.716-2.667,1.63-3.708
		c0.271-1,0.2-0.911,0.791-2.806c0.219-0.208,0.668-0.625,0.887-0.834c0.037-0.283,0.102-0.855,0.134-1.138
		c0.155-0.369,0.465-1.101,0.62-1.469c0.166,0.176,0.497,0.524,0.668,0.7c1.389-1.336,2.554-2.87,3.42-4.596
		c-0.005,0.401-0.005,1.202-0.011,1.603c-6.475,8.125-2.743,3.259-5.755,8.534c-0.048,0.278-0.15,0.828-0.203,1.106
		c-3.298,5.99-2.486,5.695-2.528,11.671c0.492,0.673,0.951,1.368,1.427,2.111c0.775-2.606,2.442-12.65,5.953-15.021
		c-1.258,8.531-6.307,10.918-6.252,38.758c0.616,1.63,3.185,11.989-1.363,16.047c-0.032,0.283-0.102,0.855-0.139,1.143
		c-1.956,3.297-4.072,6.498-5.899,9.87c2.26-0.7,3.628-2.698,4.569-4.74c0.021-0.299,0.064-0.903,0.091-1.202
		c0.257-0.214,0.775-0.636,1.037-0.85c0-0.321,0-0.957,0.005-1.272c0.262-0.219,0.796-0.647,1.063-0.866
		c0-0.358,0.005-1.079,0.005-1.443c0.379,0.005,1.138,0.016,1.518,0.021c0.743-1.486,1.485-3.014,2.837-4.04
		c-1.465,5.439-2.94,4.795-3.388,12.777c-0.321,0.925-0.583,1.87-0.903,2.811c-0.167,3.857,0.103,2.789-1.079,8.844
		c0.401,0.78,0.427,1.673,0.492,2.56c-0.059,2.495,1.854,4.419,2.346,6.802c0.192,0.219,0.572,0.657,0.764,0.876
		c0.23,1,1.136,5.539,3.008,10.335c0.438,0.193,0.887,0.406,1.347,0.641c-3.822-13.193-3.581-15.273-6.37-18.698
		c-0.016-1.053-0.011-2.084,0.011-3.105c0.876-1.486,1.854-3.051,1.811-4.836c0.057-14.576,5.574-14.346,2.052-22.364
		c0.545-1.069,1.069-2.159,1.79-3.115c0.567-1.838,1.085-3.778,2.661-5.023c0.824-3.615,10.282-25.6,17.218-30.492
		c0.597-1.356,7.077-7.275,7.342-7.476c0.244-1.05,3.064-7.005,4.254-7.845c0.084-0.277,14.773-25.278,14.84-25.559
		c2.924-3.919,4.642-5.115,5.199-9.806c0.256-0.011,0.769-0.043,1.026-0.059c-0.016-0.721-0.016-1.421,0.005-2.105
		c0.401,0,1.202,0.005,1.603,0.005c-0.005,0.256-0.005,0.769-0.005,1.026c-0.262,0.016-0.786,0.059-1.053,0.075
		c0,0-1.758,19.402-1.758,19.403c-6.307,20.512-1.186,29.276-3.511,38.325c4.841,32.779,27.831,29.431,32.239,26.27
		c11.682-3.102,25.172-11.677,26.174-12.408c0.134,0.096,0.401,0.283,0.534,0.374c2.832-1.897,6.038-3.057,9.095-4.526
		c1.838-0.016,3.602-0.604,5.183-1.539c2.795-3.099,7.583-4.409,9.213-8.507c1.361-0.811,20.962-16.183,22.476-18.238
		c3.505-0.962,6.167-3.687,8.545-6.29c2.26-1.363,3.757-3.896,6.535-4.312c5.688-3.778,8.808-7.042,11.238-10.971
		c0.048-0.347,0.144-1.042,0.192-1.389c1.801-1.967,3.719-3.853,5.969-5.312c0.561-0.497,1.598-0.812,1.459-1.742
		c-0.24-0.518-0.47-1.005-0.7-1.464c-2.634,1.111-5.125,2.49-7.556,3.981c-0.289,0.032-0.855,0.102-1.138,0.134
		c-14.241,8.947-6.2,5.837-15.406,9.742c0.39-0.529,0.802-1.037,1.24-1.518c0.011-0.727,0.048-1.427,0.107-2.111
		c7.601-10.425,3.44-4.78,10.768-11.906c1.074-0.299,2.325-0.561,2.838-1.705c0.257-0.032,0.78-0.086,1.037-0.112
		c0.272-0.166,0.818-0.497,1.09-0.663c1.582-3.185,6.01-3.392,8.416-11.387c1.391-0.121,5.386-4.547,6.236-5.547
		c-0.016-1.127-0.016-2.25,0.005-3.351c-0.609,0.24-1.202,0.497-1.774,0.77C1473.134,1311.314,1477.107,1306.547,1479.659,1303.063z
		 M1427.552,1153.871c-3.293-1.063-4.747-3.744-6.3-5.745C1424.186,1148.869,1426.537,1151.007,1427.552,1153.871z
		 M1418.457,1156.457c0.962,0.305-0.411,1.902-1.111,1.459C1417.089,1157.243,1417.891,1156.644,1418.457,1156.457z
		 M1378.16,1242.807c2.912-0.347,4.339,3.003,7.198,2.928c0.337,0.139,1.01,0.417,1.347,0.55l0.016,0.321
		c-1.571,0.951-3.078-0.123-4.547-0.679c-0.855-0.871-1.785-1.651-2.677-2.442c-0.342-0.016-1.015-0.048-1.357-0.064
		L1378.16,1242.807z M1374.013,1015.361c0.748-0.47,1.555,0.796,1.261,1.47C1374.515,1017.231,1373.479,1016.039,1374.013,1015.361z
		 M1380.832,1247.835l-0.016,0.492c-3.035,0.294-5.242-2.116-7.786-3.334C1376.022,1244.79,1377.834,1248.033,1380.832,1247.835z
		 M967.68,489.755c0.059-1.961,0.94-4.12,2.96-4.756C970.031,486.789,968.967,488.381,967.68,489.755z M981.531,490.342
		c0.053,0.759,0.096,1.528,0.16,2.309l-0.513,0.005c-0.418-2.465-0.374-1.218-0.748-4.002c-0.476-0.652-0.908-1.336-1.128-2.1
		c0.566,0.438,1.138,0.908,1.699,1.395C981.114,488.75,981.247,489.562,981.531,490.342z M989.177,473.435
		c-0.86,0.16-1.502-1.229-0.524-1.512C989.471,471.687,990.155,473.221,989.177,473.435z M1001.308,483.47
		c-0.711,0.246-1.924-0.652-1.411-1.416C1000.65,481.547,1001.564,482.765,1001.308,483.47z M999.395,455.918
		c-0.128,1.347,0.871,2.816,0.043,4.056c-0.411-0.358-0.812-0.716-1.197-1.064c-0.075-0.834-0.134-1.662-0.171-2.485
		c-0.55-0.732-1.09-1.47-1.614-2.196C997.818,452.877,998.828,454.817,999.395,455.918z M997.781,469.395
		c1.165,1.309,1.512,3.212,2.918,4.323c0.08,0.978,0.748,1.619,1.566,2.095c0.935,1.598,2.405,2.891,3.009,4.676l0.417-0.171
		c0,0.411,0,1.234,0,1.646c-0.679-0.005-1.341,0-1.993,0.011c-1.47-1.555-2.544-3.404-3.805-5.103
		c-0.365-2.333-0.846-4.868-2.64-6.936c-0.608-2.71-0.431-0.647-1.24-4.307C996.723,466.263,997.404,467.341,997.781,469.395z
		 M991.363,465.398c-0.284,3.801,3.727,10.763,3.821,13.632c0.652,1.16,0.989,2.437,0.951,3.778c-0.508,0.23-0.999,0.47-1.48,0.721
		c-2.948-5.26-2.291-4.611-1.929-7.535c-0.615-2.784-1.486-5.515-2.859-8.026c0.053-0.198,0.171-0.593,0.224-0.791
		c-0.048-1.635-0.823-3.099-1.389-4.585c-0.748-0.951-0.812-2.121-0.679-3.265c0.663,0.807,1.336,1.619,1.983,2.458
		C989.813,463.159,990.748,464.26,991.363,465.398z M990.353,422.194c-0.278,0.23-0.55,0.46-0.812,0.689
		c-1.448-1.421-2.752-2.982-3.783-4.729C987.836,418.736,988.306,421.397,990.353,422.194z M983.246,404.992l0.54,0.043
		c0.123,2.453-0.107,4.916-0.834,7.273c-0.134-0.7-0.198-1.4-0.23-2.095C983.641,408.631,983.128,406.718,983.246,404.992z
		 M987.687,465.617c-0.139,0.914-0.267,1.833-0.39,2.757c-1.101-1.197-2.255-2.351-3.228-3.65l0.08-0.866l-1.822,0.652
		c0.508-0.497,1.069-0.93,1.635-1.368c-0.395,0.107-1.181,0.326-1.576,0.438l0.144-1.085c-0.31,0.347-0.609,0.695-0.898,1.047
		c-0.769-3.305-1.634-4.217-0.556-6.247l-0.465,0.091l-0.144,0.855c-0.15-0.342-0.449-1.026-0.604-1.368
		c0.438-0.011,1.304-0.032,1.742-0.043C981,462.119,984.106,461.686,987.687,465.617z M979.532,399.595
		c0.262,0.027,0.78,0.075,1.042,0.096c0,0.001-0.566,12.247-0.566,12.248c-0.246,0.027-0.737,0.075-0.983,0.096
		C979.992,408.017,980.675,403.624,979.532,399.595z M979.083,473.226c-0.294,0.208-0.871,0.636-1.165,0.85
		c0.027-1.411-0.027-2.827-0.486-4.168C978.778,470.421,978.955,471.971,979.083,473.226z M976.833,425.838
		c-0.016-0.834-0.011-1.656,0-2.474c-0.262-0.219-0.78-0.652-1.037-0.871c-0.054-0.55-0.096-1.095-0.123-1.635
		c-0.219-0.604-0.422-1.208-0.599-1.806c-0.198-0.208-0.593-0.636-0.791-0.844c-0.15-0.882-0.337-1.747-0.62-2.581
		c0.246,0.021,0.737,0.07,0.983,0.096c0.032,0.326,0.102,0.978,0.134,1.309c2.481,4.391,2.342,6.675,3.078,8.892
		C977.603,425.902,977.09,425.859,976.833,425.838z M973.777,390.441c1.261,0.994,1.774,2.592,1.699,4.157
		c0.393,1.002,2.643,13.988,1.876,17.966c-2.944-0.732-2.789-4.574-4.131-6.776C975.649,401.076,972.157,392.283,973.777,390.441z
		 M972.986,451.926c1.213,1.186,0.903,3.185,2.292,4.211c0,1.144-0.449,2.186-1.021,3.153c-0.07-0.7-0.118-1.4-0.15-2.089
		c-0.235-0.118-0.716-0.353-0.957-0.47c-0.294-1.373-0.55-2.757-1.069-4.061C972.307,452.482,972.761,452.113,972.986,451.926z
		 M972.158,476.614l-0.492,0.011c-0.67-2.186-0.644-1.733-0.753-3.746h0.502C971.938,475.688,971.514,473.153,972.158,476.614z
		 M971.222,450.537c-1.197,0.107-2.132-0.374-2.672-1.421c-0.561-0.486-1.117-0.983-1.619-1.496
		C968.551,448.18,970.709,448.613,971.222,450.537z M965.05,451.504c0.267,0,0.807,0,1.074,0c0.011,0.326,0.032,0.983,0.037,1.315
		c0.636,0.406,1.266,0.844,1.897,1.299c0.305,0.016,0.914,0.048,1.213,0.064c0.887,2.025,0.588,4.264,0.615,6.413l-0.347-0.011
		c-0.299-1.373-0.732-2.832-2.105-3.468c-0.524-1.079-1.341-1.924-2.255-2.656C964.992,453.481,965.066,452.482,965.05,451.504z
		 M968.962,469.122c-0.262,0.011-0.786,0.021-1.047,0.027c-0.235-0.818-0.47-1.635-0.679-2.447
		C968.305,467.097,969.005,467.941,968.962,469.122z M964.04,487.051c0.695-0.882,1.352-1.801,2.057-2.683
		c0.027-0.529,0.064-1.053,0.118-1.566c0.428-0.615,0.855-1.234,1.277-1.86l0.283-0.07c-0.016,0.273-0.048,0.823-0.064,1.095
		c0.615-0.251,1.245-0.486,1.892-0.7c-0.534,1.336-1.897,2.015-2.891,2.955c-0.037,0.299-0.102,0.898-0.134,1.197
		c-0.413,0.952-1.385,3.36-1.694,4.558c-0.224,0-0.668,0.005-0.887,0.005C963.998,489.001,964.008,488.023,964.04,487.051z
		 M961.069,311.589c0.016,0.363,0.053,1.09,0.069,1.454c-0.732-0.07-1.448-0.134-2.154-0.198c-0.048-0.326-0.139-0.989-0.187-1.32
		C959.541,311.546,960.3,311.567,961.069,311.589z M959.194,492.993c-0.005-0.828-0.005-1.657,0.011-2.469l0.545-0.027
		c-0.027,0.978-0.037,1.961-0.048,2.944c-1.443,1.566-2.287,3.73-4.163,4.841c-0.011-0.256-0.037-0.775-0.048-1.031
		C956.96,496.055,958.082,494.511,959.194,492.993z M944.001,564.305c1.003,4.064,2.628,4.883,3.628,5.819
		c0.819,1.578-3.132,4.209-5.039-5.75C942.943,564.359,943.649,564.321,944.001,564.305z M939.187,574.41
		c0.903-0.187,1.063,1.384,0.679,1.966C939.128,576.345,938.957,574.971,939.187,574.41z M628.421,133.652
		c0-0.294,0.011-0.882,0.016-1.17c0.262,0,0.786,0,1.053,0c-0.011,0.887-0.011,1.78,0,2.672c-0.369,0-1.106,0.005-1.475,0.005
		c-0.278-0.764-0.561-1.528-0.812-2.298C627.507,133.059,628.116,133.455,628.421,133.652z M616.664,160.232
		c-0.331,0.027-0.989,0.07-1.315,0.096c-1.336,1.042-2.725,2.036-4.27,2.741c0.983-1.363,2.378-2.314,3.719-3.286
		c0.615-0.027,1.234-0.048,1.865-0.069V160.232z M618.07,155.93c-2.183,0.999-3.682-4.395,0.903-2.18
		C620.084,154.45,618.583,155.391,618.07,155.93z M619.539,150.752c0.299-0.005,0.892-0.016,1.192-0.021
		C621.052,151.564,619.251,151.597,619.539,150.752z M621.356,148.508c-0.358,0.016-1.079,0.043-1.438,0.059
		c0.476-1.101,0.508-2.309,0.593-3.489c0.502,0.561,1.042,1.106,1.496,1.721C621.8,147.37,621.581,147.941,621.356,148.508z
		 M623.547,145.056c-1.09-0.444-1.657-1.459-2.218-2.421c0.759,0,1.528,0,2.298,0C623.601,143.442,623.574,144.249,623.547,145.056z
		 M625.588,137.826c-0.321,0-0.956,0-1.277,0c-0.203-0.24-0.615-0.721-0.823-0.957c1.192-0.134,2.362-0.401,3.527-0.716
		C626.534,136.714,626.053,137.27,625.588,137.826z M627.026,143.661c-0.224,0.016-0.673,0.043-0.898,0.053
		c0.7-1.165,1.528-2.239,2.453-3.244c0.417,0.016,1.261,0.048,1.683,0.064C629.195,141.593,627.998,142.518,627.026,143.661z
		 M639.172,132.589c-2.431,1.459-3.912,4.072-6.461,5.387c-0.011-0.411-0.037-1.234-0.048-1.646c0.7-0.502,1.416-0.999,2.154-1.464
		c0.005-0.299,0.016-0.903,0.021-1.202c7.87-4.889,6.683-4.269,9.357-4.425C642.913,130.895,640.856,131.477,639.172,132.589z
		 M661.953,110.017c-1.592-0.037-3.201,0.011-4.686,0.614l0.011-0.417c1.818-0.808,4.131-1.197,5.499-1.352
		C662.573,109.151,662.156,109.728,661.953,110.017z M803.332,144.65c-1.229-1.325-2.699-2.378-4.254-3.281
		c-0.481-0.753-0.978-1.496-1.448-2.25c-1.272-0.898-2.506-1.844-3.778-2.731c-0.999-0.07-1.694-0.689-2.196-1.496
		c-0.769-0.598-1.491-1.25-2.138-1.966c1.123,0.292,3.692,0.976,4.857,1.261c1.763,1.935,4.644,2.458,6.135,4.686
		c1.518,2.116,3.196,4.083,5.119,5.841C804.861,144.548,804.048,144.062,803.332,144.65z M878.353,204.901
		c-1.624-0.721-2.015-2.827-0.967-4.195c1.753,0.438,3.538,0.769,5.36,0.828c0.096,0.379,0.283,1.149,0.374,1.528
		C881.757,204.04,879.801,203.939,878.353,204.901z M892.226,214.899c-0.374-0.807-0.39-1.881-1.112-2.463
		c-1.095-0.401-2.276-0.518-3.313-1.037c-1.838-2.03,3.047-1.857,4.574,0.176c0.695,0.786,1.421,1.55,2.383,2.031
		C894.064,214.3,893.113,214.567,892.226,214.899z M937.29,569.435c0.273,0.219,0.812,0.657,1.085,0.876
		c-0.032,0.748-0.064,1.502-0.091,2.266c-0.935-0.764-1.699-1.699-2.464-2.602c0.192-0.663,0.363-1.331,0.566-1.983
		c0.224,0,0.668,0,0.887,0C937.279,568.356,937.284,569.072,937.29,569.435z M927.04,226.66c0.198,0.267,0.604,0.807,0.807,1.079
		c-1.197-0.192-2.709-0.374-3.147-1.71C925.469,226.233,926.249,226.446,927.04,226.66z M920.729,223.395
		c-0.005,0.294-0.021,0.882-0.032,1.176c-1.336-0.241-2.624-0.786-3.489-1.86C918.694,222.9,918.651,223.043,920.729,223.395z
		 M915.439,226.238c-0.192,0.208-0.582,0.62-0.78,0.828c-1.063,0-2.127,0-3.169,0c0.171-0.208,0.518-0.62,0.695-0.823
		c-0.834-0.802-1.641-1.625-2.399-2.485C911.966,223.748,913.488,225.533,915.439,226.238z M904.602,216.309
		c2.405-0.144,4.964,0.882,6.231,3.014c0.55,0.443,1.09,0.908,1.625,1.405c-6.483-2.663-0.701-1.085-7.059-1.753
		C904.431,218.41,904.746,217.223,904.602,216.309z M923.871,245.128c-0.796-0.225-1.592-0.406-2.378-0.566
		c-3.736-2.889-3.067-3.323-11.195-5.312c-1.261-0.721-2.576-1.352-3.981-1.689l-0.054-0.428c4.441,0.309,2.764,0.708,6.696,1.234
		c0.679,0.513,1.379,0.999,2.095,1.491c0.278,0.032,0.828,0.102,1.106,0.134c0.684,0.278,1.389,0.529,2.111,0.786
		c1.074-0.604,2.234,0.246,3.361-0.155c0.192,0.062,6.407,2.362,7.337,2.757c-1.208,1.09-2.87,0.759-4.344,0.802
		C924.438,244.418,924.058,244.893,923.871,245.128z M928.499,253.945c-0.267-0.08-0.791-0.235-1.058-0.315
		c-0.679-1.897-2.672-3.185-2.741-5.274c0.796-0.395,1.71-0.363,2.586-0.513c2.362-1.293,5.312-0.294,7.449,1.058
		c0.283,2.496,1.395,4.858,1.229,7.417c-2.143,0.043-4.264,0.358-6.316,0.957C929.178,256.195,928.798,255.078,928.499,253.945z
		 M931.321,260.663c-0.235-0.016-0.695-0.043-0.93-0.059c-0.39-1.309,1.117-1.897,1.833-2.72c1.405,0.08,2.827,0.005,4.243-0.059
		c-0.011,0.433-0.032,1.309-0.048,1.747C934.628,259.503,932.854,259.701,931.321,260.663z M1040.119,1386.586
		c-2.234-1.106-4.061-2.854-6.327-3.89c-3.385-6.392-14.519-9.466-14.877-16.624c1.774,0.764,2.57,2.651,3.831,4.008
		c6.879,3.727,10.274,10.815,18.548,15.192c0.839,0.374,1.176,1.256,1.518,2.068
		C1040.627,1386.601,1041.746,1386.905,1040.119,1386.586z M1043.566,1383.69c-3.911-1.867-16.981-12.642-18.254-15.459
		c1.785,1.518,3.869,2.886,5.205,4.874c0.775,0.417,1.625,0.818,2.159,1.593c0.693,0.285,8.968,7.282,10.912,8.523L1043.566,1383.69
		z M1099.857,1375.279c1.01,0.294,1.427,1.17,1.635,2.148c-0.422,0.027-1.266,0.08-1.694,0.107
		C1099.798,1376.77,1099.814,1376.016,1099.857,1375.279z M1090.228,1359.825c-0.032-0.417-0.096-1.24-0.128-1.657
		c1.849-0.7,3.864-0.588,5.37,0.807c-0.005,0.401-0.011,1.208-0.016,1.609C1093.728,1360.204,1091.98,1359.921,1090.228,1359.825z
		 M1095.042,1363.148c-2.41-0.583-4.815,0.102-7.23-0.096C1087.947,1360.518,1095.23,1359.754,1095.042,1363.148z
		 M1093.883,1346.107c-0.139,0.866-0.283,1.737-0.411,2.629c-0.582-0.128-1.154-0.24-1.71-0.337
		c-1.726,0.647-3.543,0.486-5.039-0.588c0.155-0.385,0.476-1.154,0.63-1.539C1089.528,1346.342,1091.708,1346.369,1093.883,1346.107
		z M1069.473,1356.73c-0.481-0.524-0.941-1.021-1.4-1.507c-1.475,1.101-2.688-1.031-3.88-1.683c3.158-0.177,6.768,0.72,8.951,0.534
		c-0.198,0.262-0.593,0.791-0.786,1.058c0.422,0,1.266,0.005,1.689,0.005c0.021-0.267,0.064-0.807,0.085-1.074
		c0.257,0,0.764,0,1.021,0c0,0.401,0.005,1.197,0.011,1.592c-0.395,0.005-1.186,0.011-1.582,0.011
		c-0.016,0.267-0.043,0.807-0.059,1.074C1072.166,1356.725,1070.814,1356.725,1069.473,1356.73z M1073.096,1367.445
		c-0.737-0.021-1.464-0.032-2.175-0.027c-0.021-0.262-0.059-0.796-0.075-1.063c-0.892-0.016-1.769-0.021-2.635,0
		c0-0.267,0-0.802,0-1.069c1.138-0.011,2.292-0.005,3.452,0.005C1072.112,1366.007,1072.599,1366.723,1073.096,1367.445z
		 M1042.449,1320.42c3.153-0.612,11.69,8.047,11.259,9.539c-1.144,0.112-2.036-0.743-3.003-1.149
		c2.014,3.309,5.07,1.633,7.893,4.959c-0.144,0.54-0.401,1.047-0.77,1.523c-1.951-1.748-15.57-6.258-11.468-8.411
		c1.598,0.118,2.843,1.293,4.206,2.057C1044.507,1323.389,1043.052,1324.243,1042.449,1320.42z M1058.411,1334.388
		c2.121,0.363,4.088,1.325,5.873,2.522c0.155,1.934-1.908,1.411-2.768,0.47C1060.126,1336.788,1058.128,1336.365,1058.411,1334.388z
		 M1064.262,1350.772c-0.684,0.438-1.079,0.32-1.186-0.364C1063.733,1349.933,1064.129,1350.056,1064.262,1350.772z
		 M1065.492,1343.195c2.095,0.7,4.184,1.475,6.412,1.683c-0.011,0.433-0.043,1.304-0.059,1.742
		C1063.067,1346.244,1063.887,1342.948,1065.492,1343.195z M1075.126,1358.157c2.784,0.823,5.392,2.207,8.261,2.8
		c1.058-1.154,1.774-3.046,3.393-3.415c0.235,0.321,0.705,0.967,0.941,1.293c-0.289,0.192-0.866,0.572-1.154,0.764
		c-0.085,0.283-0.267,0.849-0.353,1.127c-2.556,1.859-1.451,2.382-7.3,1.496c-0.176-0.272-0.524-0.812-0.7-1.079
		c-1.021-0.294-2.031-0.583-3.035-0.839C1075.212,1359.664,1073.956,1358.018,1075.126,1358.157z M1077.232,1357.249
		c0.112-1.224,1.197-1.897,2.207-2.346c2.325,0.684,4.836,0.994,7.219,0.363c0.075,0.374,0.23,1.122,0.31,1.496
		C1085.797,1357.554,1082.171,1361.876,1077.232,1357.249z M1090.559,1336.611c-1.213,0.582-2.458,1.095-3.666,1.667
		c-0.411,0.465-0.636,1.502-1.464,1.176c-2.431-0.417-4.932-0.374-7.273-1.229c-2.49,0.588-4.964-0.652-7.38-1.144
		c-7.41-3.94-13.429-12.387,0.882-9.987c2.795,0.331,5.531,1.224,8.384,1.079c0.246,0.187,0.727,0.566,0.967,0.759
		c1.042,0.005,2.1,0.032,3.164,0.096C1085.096,1332.273,1089.278,1329.309,1090.559,1336.611z M1078.947,1314.274
		c-0.021-0.289-0.059-0.855-0.075-1.138c-0.427-0.438-0.844-0.866-1.24-1.282c0.256,0,0.775-0.005,1.037-0.011
		c1.277,2.64,3.147,4.895,4.964,7.187c0.201,1.141,0.189,1.046,0.759,2.645c-0.599-0.481-1.165-0.946-1.726-1.405
		c-0.027-0.294-0.086-0.876-0.112-1.165c-0.459-0.663-0.887-1.331-1.266-1.999c-0.102,0.166-0.294,0.497-0.396,0.663
		c-1.079-0.973-2.244-1.822-3.361-2.725c1.058,0.395,2.084,0.828,3.169,1.229
		C1080.117,1315.568,1079.535,1314.916,1078.947,1314.274z M1073.325,1314.162c0.963,1.658,4.516,5.191,8.005,6.925
		c0.7,0.994,1.448,1.967,2.137,2.992c-0.935-0.251-1.865-0.449-2.8-0.593c-9.3-9.153-8.9-8.698-9.95-10.821
		C1071.615,1313.077,1072.47,1313.617,1073.325,1314.162z M1040.574,1297.148c0.144-0.347,0.427-1.031,0.572-1.373
		c9.935,0.621,16.343,9.008,16.699,10.009c2.399,3.606,16.998,18.424,16.999,18.425c1.245,0.492,2.522,0.887,3.746,1.475
		c-0.005,0.358-0.016,1.074-0.027,1.432c-7.127-0.271-5.923-2.433-11.051-0.935c-5.713-0.852-3.595-0.217-7.305,1.197
		c-1.314,0.123-1.598-1.357-1.812-2.292c-0.278,0.016-0.839,0.048-1.117,0.064c-0.705-3.105-3.831-4.542-5.75-6.787
		c-6.302-8.132-9.431-16.886-11.024-19.12C1040.515,1298.521,1040.542,1297.826,1040.574,1297.148z M1032.28,1298.516l0.62-0.054
		c0.027,0.342,0.085,1.026,0.112,1.363c1.015,1.913,2.164,3.794,2.741,5.91C1033.915,1303.79,1032.617,1301.172,1032.28,1298.516z
		 M1037.309,1303.582c-0.048-0.272-0.139-0.823-0.187-1.101c-0.834-1.609-1.753-3.174-2.421-4.847
		c0.166-0.24,0.502-0.716,0.668-0.956c1.367,3.442,1.217,3.263,1.373,4.339c0.476,0.668,0.967,1.352,1.485,2.031
		c0.021,0.534,0.064,1.09,0.118,1.662c0.663,1.015,1.341,2.031,2.015,3.067c0.037,0.283,0.118,0.85,0.155,1.133
		c0.16,0.331,0.476,0.994,0.63,1.325c0.155,0.011,0.454,0.027,0.604,0.037c1.208,1.469,2.324,3.014,3.452,4.558
		c-0.16,0.182-0.481,0.55-0.641,0.737c0.24,0.016,0.721,0.043,0.962,0.059c0.989,1.689,2.175,3.26,3.078,5.018
		c-1.299-0.358-1.806-1.683-2.501-2.672c-1.737-1.01-2.875-2.667-4.013-4.254c-0.027-0.267-0.091-0.812-0.118-1.079
		C1039.528,1308.19,1037.309,1303.582,1037.309,1303.582z M1021.395,1312.409c1.71,2.244,4.633,3.03,6.792,4.772
		c3.484,1.993,4.975,6.081,8.267,8.272c1.005,1.283,1.833,2.763,3.174,3.757c0.417,0.529,0.844,1.063,1.293,1.625
		c0.016,0.358,0.053,1.069,0.069,1.427c-0.668-0.459-1.379-0.882-2.004-1.336c0.363-0.914,0.288-1.753-0.732-2.105
		c-0.235,0.193-0.695,0.572-0.924,0.764c-0.23-0.443-0.689-1.325-0.919-1.769c0.401,0.155,1.202,0.46,1.598,0.615
		c-0.561-0.652-1.277-1.886-2.26-1.218c-2.624-3.677-5.536-7.449-9.923-9.074c0.705,0.791,1.325,1.657,1.502,2.757
		c0.107-0.096,0.326-0.289,0.433-0.379c0.695,0.262,1.282,0.791,1.961,1.181c0.011,0.267,0.032,0.807,0.048,1.074
		c0.957,0.572,1.817,1.299,2.661,2.063c-0.005,0.401-0.016,1.213-0.016,1.619c-2.292-2.667-6.434-3.848-7.235-7.609
		c-0.107,0.101-0.326,0.294-0.433,0.395c-1.101-1.074-1.715-2.56-2.132-4.002c-0.834-0.866-1.635-1.758-2.244-2.774
		C1020.625,1312.452,1021.138,1312.426,1021.395,1312.409z M1037.715,1331.743c-0.027,0.673-0.053,1.363-0.064,2.063
		c-7.656-0.905-7.906-6.653-10.757-8.171c0.235-0.208,0.492-0.39,0.764-0.556c0.887,0.615,1.87,1.117,2.843,1.635
		c0.572,2.56,3.618,3.057,5.231,4.836C1036.379,1331.599,1037.041,1331.663,1037.715,1331.743z M1021.785,1320.099
		c-0.027-0.139-0.08-0.417-0.112-0.561c-0.315-0.155-0.957-0.47-1.277-0.63c0.347-0.369,0.892-1.341,1.357-0.257
		c1.865,1.427,3.067,3.468,4.435,5.344c0.112,0.321,0.102,0.663-0.037,1.021c-0.593-0.545-1.176-1.079-1.742-1.603
		c-0.011-0.272-0.037-0.823-0.048-1.095C1023.393,1321.686,1022.613,1320.853,1021.785,1320.099z M1013.47,1329.825
		c1.731-0.044,13.817,3.236,13.931,3.35C1027.902,1336.574,1012.865,1331.837,1013.47,1329.825z M1039.174,1345.958
		c-2.068,0.481-3.596-1.657-5.451-2.255c-1.983-1.555-4.115-3.089-6.717-3.244c0.134-0.599,0.283-1.176,0.449-1.742
		c3.129,0.037,10.97,5.493,11.97,6.279C1039.361,1345.236,1039.238,1345.717,1039.174,1345.958z M1039.996,1338.615
		c2.822,0.358,5.445,1.672,8.213,2.357c1.689,0.951,4.671,1.282,4.649,3.746c-2.822-0.011-4.948-2.282-7.647-2.773
		C1042.966,1341.526,1039.138,1340.751,1039.996,1338.615z M1051.277,1350.254c-5.385-3.702-5.598-3.176-5.75-4.323
		c4.861,2.995,5.561,2.704,7.487,4.344c1.849,0.059,3.714,0.048,5.579,0.048l0.005,0.529
		C1056.14,1350.895,1053.639,1351.018,1051.277,1350.254z M1056.22,1352.883c1.229,0.037,2.346,0.577,3.409,1.186l0.08-0.572
		c0.78,0.411,1.566,0.828,2.362,1.266c0.62,1.405,2.314,1.656,3.206,2.843c0.695,0.401,1.416,0.802,2.143,1.224
		c-0.401,0.011-1.197,0.027-1.598,0.037C1062.859,1355.613,1061.467,1357.223,1056.22,1352.883z M1048.953,1367.562
		c-2.319-1.518-5.157-2.148-7.081-4.232c-2.88-1.876-4.986-4.697-8.171-6.092c1.7,0.052,14.991,4.037,17.084,5.21
		c0.759-0.278,1.512,0.096,2.271,0.24c3.324,2.164,6.557,4.516,9.501,7.193c0.978,0.497,1.945,1.063,2.768,1.844
		C1060.895,1370.36,1056.957,1372.542,1048.953,1367.562z M1072.438,1371.362c-0.807-0.396-1.592-0.78-2.367-1.165
		c-0.267-0.043-0.812-0.139-1.085-0.187c-0.882-0.497-1.769-0.967-2.634-1.448c-0.299-0.021-0.903-0.075-1.202-0.101
		c-0.208-0.257-0.62-0.764-0.828-1.021c-0.315-0.005-0.941-0.027-1.256-0.037c-1.673-1.432-3.735-2.319-5.306-3.848
		c4.553,1.539,8.603,4.232,12.836,6.471c0.62,0.016,1.256,0.053,1.908,0.101C1072.487,1370.437,1072.454,1371.052,1072.438,1371.362
		z M1077.82,1368.711c-0.059,0.641-0.102,1.299-0.134,1.977c-1.737-0.342-3.468-0.775-5.023-1.614
		c0.689-1.336,2.095-2.015,3.575-1.742c-0.005-0.219-0.021-0.663-0.027-0.887c1.721,0.465,4.483-0.604,5.189,1.603
		C1081.042,1369.459,1078.947,1368.69,1077.82,1368.711z M1082.159,1372.634c-1.037,0.251-2.228-0.24-2.244-1.421
		c0.641-0.657,1.368-1.208,2.084-1.774c0.139-0.684,0.299-1.347,0.47-1.988c0.545,0.401,1.106,0.823,1.673,1.266
		c0.716,0.027,1.438,0.053,2.18,0.118c0,0.411,0,1.224,0,1.63C1084.66,1370.603,1082.704,1370.72,1082.159,1372.634z
		 M1088.165,1375.017c-1.63-0.689-4.238,0.032-4.681-2.202c0.588-0.481,1.181-0.951,1.785-1.411c0.379,0.021,1.128,0.07,1.507,0.091
		c0.465-0.668,0.935-1.341,1.421-1.983c0.609,0.198,1.224,0.411,1.86,0.652c0.219-0.288,0.652-0.866,0.866-1.154
		c1.459,0.16,1.721,1.298,1.608,2.618C1091.083,1372.767,1089.993,1374.445,1088.165,1375.017z M1090.03,1375.845
		c0.235-0.871,0.497-1.731,0.764-2.57c0.396,0.096,1.181,0.283,1.576,0.379c0.62-1.037,1.272-2.047,1.865-3.089
		c0.732,0.112,1.459,0.364,2.132,0.754c0.909,0.166,1.838,0.31,2.763,0.572c0.732,1.304-1.037,1.854-1.924,2.282
		c-0.342,0.534-0.673,1.085-0.973,1.667C1094.171,1376.128,1092.087,1376.021,1090.03,1375.845z M1084.205,1397.252
		c-0.155-1.571,0.614-2.854,1.667-3.922c0.625-0.342,7.72-8.744,14.407-11.783c0.502,0.267,1.015,0.55,1.55,0.844
		c0.288,3.351-0.962,6.514-1.79,9.699c-2.389,1.854-4.5,3.981-6.471,6.258C1092.292,1396.775,1091.823,1397.567,1084.205,1397.252z
		 M1096.255,1397.824c0.711-1.336,1.822-2.367,2.944-3.345c-0.005,0.951-0.005,1.929,0.005,2.912l-1.192-0.705l0.7,1.213
		C1097.88,1397.867,1097.062,1397.84,1096.255,1397.824z M1097.228,1556.4c-1.683,2.736-6.339,13.752-6.461,14.631
		c-2.608,1.892-4.243,4.681-6.193,7.182c-2.167,0.826-6.27,8.801-9.25,8.678c0.011,0.337,0.037,1.01,0.048,1.341
		c-2.063-0.337-3.719-1.656-5.579-2.458c-1.208-0.107-2.399,0.091-3.586,0.069c-0.609-1.112-0.337-2.399-0.369-3.575
		c1.384-2.223,0.118-5.082,1.763-7.214c-0.176-0.433-0.337-0.839-0.481-1.229c0.064-0.087,8.245-13.322,8.245-13.322
		c1.229-0.358,2.469-0.711,3.719-1.031c0.176-0.24,0.534-0.727,0.716-0.972c0.962-0.246,1.934-0.497,2.923-0.705
		c1.224-1.063,2.629-1.913,3.762-3.083c3.305-7.201,0.304-9.878,0.027-13.183c-1.601-19.685,49.55-106.294,50.552-106.148
		C1139.709,1442.622,1097.414,1555.4,1097.228,1556.4z M1245.325,1385.907c-1.491,3.083-2.453,6.375-3.628,9.592
		c-0.508,0.278-1.005,0.577-1.485,0.892c-0.064-2.207,0.502-4.35,1.518-6.29c0.604-4.519,5.409-17.016,8.139-19.745
		C1250.906,1376.49,1246.489,1376.74,1245.325,1385.907z M1327.485,1299.536c0.727,0,1.469,0.027,2.234,0.064
		c-1.197,2.544-2.528,5.077-4.377,7.214l0.353-1.651c-0.529,0.615-1.689,1.24-1.176,2.207c-0.588,0.374-1.16,0.775-1.699,1.197
		c-0.256,0.032-0.775,0.085-1.031,0.112c-0.39,0.903-1.069,1.614-2.063,1.79c0.689-1.347,1.592-2.554,2.554-3.708
		C1324.76,1305.019,1325.93,1302.037,1327.485,1299.536z M1316.75,1281.09c0.283-0.508,0.577-1.01,0.887-1.491
		c0.41-2.6,1.287-5.587,3.5-7.027c-0.299,1.181-0.871,2.282-1.651,3.222c-0.279,1.009-0.481,1.521-0.812,3.19
		c-0.673,1.058-2.047,2.276-0.908,3.538c-0.272-0.021-0.818-0.059-1.09-0.08C1316.696,1282.105,1316.728,1281.432,1316.75,1281.09z
		 M1317.904,1298.895c0.176,0.187,0.529,0.556,0.7,0.743c0.438-1.09,0.973-2.138,1.721-3.041c0.25-1,1.926-6.935,3.121-7.455
		c0.417-0.748,0.844-1.48,1.331-2.175c-0.341,2.577-0.403,1.966-1.24,5.387c-0.486,0.855-0.978,1.715-1.32,2.65
		c0.069,1.042,0.315,2.068,0.369,3.137c-0.642,1.236-0.906,1.993-1.24,3.302c-2.303,2.859-2.757,7.321-6.364,8.988
		c0.77-1.181,1.491-2.394,2.17-3.623c0.053-0.273,0.15-0.818,0.198-1.095c0.748-1.154,1.058-2.48,1.01-3.831
		c-0.241-0.203-0.721-0.604-0.962-0.807c-0.358,1.779-1.272,3.361-1.993,5.012c-0.283-0.508-0.556-0.999-0.812-1.47
		c0.16-0.187,0.486-0.572,0.652-0.764c-0.353-0.005-1.058-0.016-1.416-0.021C1315.911,1302.865,1316.6,1300.6,1317.904,1298.895z
		 M1313.933,1285.904c-0.128,2.468-1.498,4.951-2.725,5.937C1311.817,1289.736,1312.918,1287.828,1313.933,1285.904z
		 M1310.722,1296.068c0.032-0.283,0.096-0.855,0.128-1.138c0.604-0.967,1.325-1.86,2.191-2.602
		c-0.562,3.163-0.672,3.083-1.304,4.419c-0.567,0.235-1.117,0.492-1.646,0.759
		C1310.246,1297.148,1310.567,1296.426,1310.722,1296.068z M1310.177,1311.57c0.053-0.262,0.155-0.786,0.208-1.047
		c0.716-1.272,1.357-2.597,1.694-4.013l0.39-0.011c-0.096,3.008-0.089,2.039-0.641,4.649c-0.908,0.876-1.812,1.758-2.8,2.544
		C1309.199,1312.869,1309.669,1312.201,1310.177,1311.57z M1299.243,1107.573c-0.561,4.932-1.176,9.87-1.117,14.85
		c1.347-0.027,2.715-0.011,4.083,0c-0.053,0.834-0.107,1.673-0.15,2.538c-0.989,1.095-1.897,2.26-2.875,3.367
		c0.043,0.358,0.134,1.079,0.176,1.437c1.437-0.684,1.261-3.26,3.233-2.667c-1.375,9.797,1.068,17.929,1.534,32.308
		c1.526-7.82,2.358-13.223,1.037-21.567c5.203-1.541-0.322,42.297-1.913,42.381c-1.673-1.377-6.07-16.998-7.695-20.445
		c-1.752-11.361-0.591-11.53-1.977-14.738C1294.881,1140.091,1295.174,1108.492,1299.243,1107.573z M1157.271,1250.887
		c-0.727,0.321-1.721-0.679-1.389-1.379C1156.533,1249.268,1157.458,1250.208,1157.271,1250.887z M1171.132,1258.87
		c-2.769,0.678-2.056,0.606-5.483,0.631c-0.267,1.448-1.443,2.105-2.779,2.383c-0.016,0.256-0.037,0.775-0.053,1.031
		c1.854,0.529,3.559,1.459,5.328,2.228c-0.96,3.946-0.789,1.416-4.334-0.037c-0.919-0.102-1.828-0.016-2.714,0.027
		c-0.914-2.896-3.885-5.178-3.244-8.448c1.341-0.62,1.956,0.924,2.987,1.453c1.507,0.668,3.163,0.86,4.815,0.78
		c0.914-0.379,1.876-0.657,2.827-0.983c1.384-0.064,2.773-0.086,4.179-0.054C1172.142,1258.197,1171.629,1258.528,1171.132,1258.87z
		 M1178.298,1261.451c-1.218,0.54-2.437,1.069-3.714,1.422c-0.011-0.294-0.032-0.887-0.037-1.181
		c2.389-0.445,1.805-0.475,3.751-0.743V1261.451z M1213.77,1331.038c-0.299-0.679,0.893-1.144,1.373-0.753
		C1215.464,1330.995,1214.235,1331.449,1213.77,1331.038z M1214.668,1245.051c-0.016,0.315-0.054,0.946-0.07,1.261
		c-0.433-0.427-0.85-0.839-1.256-1.24c-0.748-0.037-1.475-0.053-2.186-0.053c-1.389-1.523-3.265-2.57-5.312-2.784
		c-0.855-1.117-2.212-1.619-3.281-2.448c-0.321-0.032-0.957-0.091-1.277-0.123c-0.021-0.246-0.059-0.743-0.08-0.989
		c7.809,2.427,13.196,2.226,14.792,5.269c0.224,0.016,0.684,0.037,0.914,0.053c-0.208,0.262-0.625,0.791-0.828,1.053
		C1215.731,1245.051,1215.02,1245.051,1214.668,1245.051z M1201.068,1232.184c0.107-0.112,0.315-0.342,0.422-0.454
		c1.341,0.743,2.72,1.437,4.088,2.18c-0.016,0.417-0.048,1.256-0.059,1.673c-1.518-0.814-4.439-1.707-6.936-1.753
		c-0.775-0.919-0.16-1.929,0.187-2.859C1199.529,1231.361,1200.288,1231.756,1201.068,1232.184z M1201.047,1228.577l0.54-0.059
		c0.486,0.31,0.983,0.625,1.491,0.957c1.661,0.39,2.477,1.015,4.12,0.107c-0.043,0.732-0.07,1.475-0.075,2.234
		C1204.686,1231.767,1202.618,1230.313,1201.047,1228.577z M1213.936,1232.649c-0.973,1.87-3.137,0.818-4.28-0.251
		c0.924-0.609,2.004-0.866,3.099-1.01c0,0,3.698,0.166,9.111,1.464c0.871,0.481,1.763,0.946,2.656,1.443
		c-1.304,0.091-2.682-0.107-3.858,0.556C1218.141,1235.272,1216.271,1233.146,1213.936,1232.649z M1224.506,1326.87
		c0.262-0.027,0.786-0.075,1.047-0.096c0.422-0.689,0.908-1.331,1.486-1.892c-0.072,2.569-7.39,6.01-8.39,6.386
		C1219.979,1329.028,1222.924,1328.858,1224.506,1326.87z M1223.18,1336.948c-2.554,1.224-4.516,3.393-7.182,4.398
		c1.24-2.057,3.73-2.597,5.29-4.307c0.289-0.037,0.86-0.112,1.149-0.15c0.716-0.465,1.24-1.833,2.25-1.427
		C1224.767,1336.275,1223.667,1336.488,1223.18,1336.948z M1225.307,1334.41l0.422-0.267
		C1227.092,1334.34,1225.398,1335.553,1225.307,1334.41z M1222.336,1334.217c-0.534,0.021-1.053,0.059-1.555,0.118
		c-1.031,0.994-2.18,2.132-3.719,2.105c1.416-1.047,2.87-2.057,4.243-3.169c0.524-0.059,1.063-0.096,1.619-0.112
		c1.069-0.673,2.036-2.025,3.372-1.972C1225.687,1332.716,1223.512,1333.063,1222.336,1334.217z M1227.813,1330.535
		c-0.882,0.347-1.208-0.732-0.273-0.962C1228.444,1328.922,1228.695,1330.338,1227.813,1330.535z M1221.588,1237.666l-0.032-0.497
		c0,0,8.786-1.645,8.871-1.667C1229.506,1237.581,1226.579,1237.043,1221.588,1237.666z M1233.846,1235.182
		c-0.679-0.369-1.357-0.716-2.02-1.026c-0.112-0.374-0.337-1.117-0.443-1.491c0.524-0.673,1.063-1.331,1.587-1.999
		c1.352-0.492,2.795-0.62,4.061,0.214c0.962-1.486,2.196-2.747,3.447-3.981c0.63-0.027,1.277-0.032,1.94-0.027
		c0-0.251,0-0.759,0-1.01c-0.609-0.064-1.202-0.118-1.78-0.16c-0.828-0.615-1.747-0.176-2.608-0.021
		c-0.641-0.283-1.17-0.759-1.731-1.095c0.005,0.39,0.011,1.16,0.011,1.544c-0.534,0.759-1.053,1.534-1.544,2.324
		c-0.379-0.08-1.128-0.251-1.507-0.331c-1.625,1.694-3.522,3.212-5.836,3.81c-0.882-0.144-1.705-0.443-2.533-0.684
		c-1.407-3.011-9.258-3.417-11.019-1.186c-0.625-0.871-1.037-1.806-0.171-2.651c-0.753-2.18,1.502-3.318,2.885-4.483
		c1-0.078,14.767-2.473,18.148,0.534c0.695-0.043,1.405-0.069,2.132-0.096c2.388,1.077,2.859,0.992,8.235,1.993
		c-0.005,0.331-0.027,0.994-0.037,1.325c-1.689,1.78-3.559,3.372-5.536,4.825c-1.085,0.075-1.844,0.77-2.207,1.769
		c-0.567-0.005-1.112,0.005-1.641,0.037C1235.065,1233.931,1234.445,1234.546,1233.846,1235.182z M1238.464,1328.398
		c-0.518-0.299-1.01-0.561-1.491-0.812c0.818-0.411,1.651-0.807,2.474-1.234c0.299-0.048,0.903-0.144,1.208-0.198
		C1239.725,1326.688,1238.795,1327.318,1238.464,1328.398z M1241.408,1325.94c-0.283-0.246-0.545-0.481-0.791-0.695
		c2.426-1.149,4.157-3.228,6.049-5.05c0.011-0.283,0.037-0.85,0.048-1.133c1.427-0.657,2.602-2.164,4.168-2.292
		C1249.276,1319.278,1242.41,1324.947,1241.408,1325.94z M1251.454,1315.787c0.16-0.155,0.492-0.465,0.652-0.615
		C1253.426,1315.316,1251.887,1316.887,1251.454,1315.787z M1261.57,1214.501c-1.79-1.138-3.538,0.63-5.413,0.465
		c-0.176-1.325,0.711-1.865,1.812-2.148c1.395,0.15,2.811,0.171,4.238,0.171C1261.976,1213.475,1261.762,1213.983,1261.57,1214.501z
		 M1264.055,1212.406c0.417-1.181,1.261-1.865,2.549-1.523c1.037,0.63,2.282,0.475,3.463,0.545c0.203,0.256,0.615,0.769,0.818,1.026
		C1268.602,1212.449,1266.326,1212.481,1264.055,1212.406z M1266.753,1215.516c0.82-1.161,4.881-0.384,5.884,0.636
		C1269.201,1216.289,1270.03,1216.218,1266.753,1215.516z M1277.697,1204.124c-3.75-1.299-6.837-3.946-9.314-3.473
		c1.502,0.962,2.479,2.928,4.494,2.928c1.037,1.205,10.036,4.97,12.825,4.649c0,0.246,0,0.743,0,0.989
		c-2.977-0.55-6.45,1.865-8.972-0.47c-1.021,2.154-3.548,1.047-5.392,0.983c-0.203-0.192-0.609-0.577-0.812-0.769
		c-4.255-0.387-6.669-0.77-6.669-0.77c-1.272,0.47-2.341,1.304-3.452,2.047c-0.956,0.214-1.897,0.524-2.87,0.406
		c0.011,0.251,0.032,0.759,0.043,1.015c-2.041-0.208-4.083-0.326-6.119-0.273c-0.224-0.224-0.668-0.684-0.892-0.914
		c-1.001,0.419-17.765,0.761-18.516,0.636c-3.276,1.234-6.76,0.753-10.169,0.828c1.475,1.844,3.746,2.667,5.632,4.002
		c-0.802,0.502-1.491,1.144-2.159,1.796c1.347,0.037,2.789-0.123,4.067,0.508c3.359,0.422,3.001-0.557,8.929,0.753
		c2.292,0.331,4.174,1.929,6.498,2.105c0.459-0.556,0.951-1.085,1.453-1.609c5.139-0.887,7.715-2.797,11.409-3.313
		c-0.86,0.593-1.828,1.005-2.843,1.197c-0.615,0.374-1.192,0.802-1.544,1.448c-0.262,0.021-0.786,0.064-1.053,0.086
		c-1.737,0.989-3.292,2.234-4.777,3.559c-12.628-3.082-30.077-7.163-37.508,3.5c-0.796,0.599-1.582,1.213-2.346,1.849
		c-0.251-0.224-0.753-0.673-1.005-0.898c-7.028,0.305-5.512-2.615-11.981,0.62c-0.422-0.689-0.818-1.336-1.234-1.977
		c-0.24-0.753-0.46-1.469-0.689-2.186c-0.871-0.417-1.731-0.828-2.576-1.224c-0.032,2.106,0.743,4.083,1.085,6.145
		c-1.074,0.289-2.121,0.625-3.169,0.962c0.321,0.673,0.679,1.341,1.475,1.608c-0.182,0.203-0.54,0.615-0.721,0.823
		c1.924-0.005,3.858-0.043,5.798,0.064c-5.391,2.207-10.837-0.882-11.837-1.304c-0.876-1.005-1.913-1.838-2.95-2.629
		c-0.112,0.289-0.192,0.593-0.246,0.919c0.754,1.459,1.977,2.629,2.72,4.12c-0.545-0.15-1.074-0.289-1.582-0.411
		c-1.464,0.46-3.666-0.134-4.211,1.731c6.269,2.309,7.772,1.122,10.201,1.689c0.305,0.481,0.593,0.989,0.876,1.528
		c0.476,0.401,0.962,0.823,1.459,1.256c-0.572,0.422-1.133,0.855-1.683,1.299c0.037,0.636,0.096,1.283,0.166,1.951
		c0.577-0.032,1.17-0.054,1.779-0.054c0.657-0.732,1.331-1.448,2.009-2.159c0.534,0.011,1.09,0.037,1.657,0.091
		c0.954,0.741,14.441,5.333,15.422,5.451c-0.353,0.999-0.791,1.972-1.154,2.976c1.229,1.026,3.051,0.331,4.515,0.903
		c0.38-0.118,1.138-0.347,1.518-0.46c-0.384,3.212-8.511,2.36-10.233,3.254c-1.544,0.107-3.083,0.096-4.612,0.091
		c0.182-0.203,0.545-0.609,0.727-0.812c-1.288-0.604-2.271-1.63-3.254-2.597c0.08-0.166,0.24-0.502,0.315-0.668
		c-1.379-1.566-2.143-3.564-3.644-5.018c-0.641-0.005-1.261,0-1.87,0.021c-0.208,0.198-0.636,0.599-0.85,0.796
		c-3.672,0.752-3.545,0.906-3.96,3.741c0.919-0.272,1.876-0.545,2.757-0.983c6.028,1.027,4.266,2.604,7.209,5.595
		c-4.108,3.766-19.15-1.628-22.519-1.16c-0.824,0.723-5.561,0.646-8.732-2.079c-1.496-0.032-2.987,0.064-4.462-0.086
		c-0.876-0.55-1.592-1.309-2.442-1.86c-1.197-0.203-2.41-0.085-3.591-0.027c-1.384-1.699-1.683-3.965-2.683-5.867
		c-4.157-42.72,11.777-37.644,21.402-55.88c4.702-5.009,17-24.513,24.902-28.552c1.062-1.159,10.903-9.221,14.161-14.209
		c1.849-1.678,1.876-5.082,4.772-5.488c7.433-10.411,22.083-36.644,25.345-48.634c-0.07-1.683,2.989-9.002,3.912-10.591
		c0.234-1.001,8.658-21.542,9.111-31.143c0.16-0.321,0.337-0.62,0.534-0.908c-0.347-2.939,0.738-5.894-0.027-8.796
		c0.86-2.02,1.619-4.179,1.309-6.402c0.786-1.774,1.17-3.682,0.866-5.606c0.438-1.347,1.181-2.763,0.668-4.179
		c0.516-1.001,7.664-25.614,6.204-35.536c0.401-2.079,0.208-4.189,0.246-6.279c3.938,1.897,4.526,6.925,7.968,9.41
		c0.048,0.283,0.15,0.85,0.203,1.133c0,0,4.172,5.977,6.615,9.031c0.257,1.571,1.534,2.549,2.875,3.238
		c0.641,1.651,1.384,3.308,2.838,4.43c0.492,2.506,0.577,5.354,2.383,7.364c0.404,1.763,0.824,3.508,2.608,6.92
		c0.193,1.373,1.245,2.373,1.651,3.687c5.301,17.042-1.283,37.971-1.518,42.67c-0.214-0.171-0.641-0.518-0.855-0.689
		c0.229,1.771-1.431,15.152-0.727,15.93c-0.061,2.501-2.245,13.933-1.854,16.186c-0.395,3.158-0.155,6.375-0.866,9.512
		c1.699,0.203,1.453,2.052,1.416,3.313c-1.387,13.394-2.563,9.057,0.625,24.063c-0.235-3.833-0.779-16.876,3.099-16.726
		c0.15,1.727-2.378,8.349-1.453,14.172c0.248,1.018,4.072,33.657,8.662,43.642c0.508,2.276,1.977,4.067,3.302,5.916
		c0.037,0.305,0.112,0.908,0.15,1.213c0.155-0.289,0.454-0.871,0.609-1.165c0.787,1.406,1.091,10.93-2.704,18.014
		C1291.105,1208.979,1282.094,1203.911,1277.697,1204.124z M1253.976,1212.561c-0.176,0.679-0.577,0.786-1.208,0.326
		C1252.913,1212.177,1253.314,1212.064,1253.976,1212.561z M1249.21,1214.677c-2.191,1.566-4.686,3.334-7.529,2.512
		c-1.125-0.891-9.009-1.506-10.474-1.395c-0.31-0.235-0.94-0.705-1.256-0.946c1.946-2.054,15.487-1.843,18.308-1.78
		C1248.563,1213.587,1248.884,1214.127,1249.21,1214.677z M1196.109,1229.522c-0.257-0.673,0.55-1.272,1.111-1.459
		C1198.193,1228.363,1196.82,1229.971,1196.109,1229.522z M1301.734,1299.921c0.23,0.203,0.689,0.615,0.914,0.818
		c0.198,0.684,0.417,1.373,0.673,2.079c-0.401-0.021-1.192-0.053-1.587-0.075C1301.718,1301.786,1301.712,1300.84,1301.734,1299.921
		z M1299.735,1284.611c-0.144-0.037-0.438-0.107-0.588-0.144c0.935-1.213,1.657-2.923,3.292-3.292
		C1301.568,1282.335,1300.745,1283.559,1299.735,1284.611z M1297.646,1285.605l-0.016-0.454
		C1298.688,1284.499,1298.682,1286.444,1297.646,1285.605z M1296.555,1288.063c-0.171,1.539-1.496,2.485-2.72,3.222l-0.128-0.791
		c0.198-0.011,0.599-0.043,0.796-0.059C1294.984,1289.485,1295.684,1288.678,1296.555,1288.063z M1270.964,1348.357
		c-2.522,1.517-4.312,3.954-6.893,5.392c-0.583,0.941-1.667,1.245-2.651,1.56c3.281-3.896,7.316-7.118,11.521-9.961
		C1273.15,1346.807,1272.69,1348.341,1270.964,1348.357z M1274.726,1363.934c-2.675,4.013-2.498,4.717-4.056,7.011
		c0.072-1.001,1.227-5.996,2.934-7.059c-0.187-0.101-0.572-0.304-0.764-0.406c0.989-1.544,1.918-3.169,3.345-4.355
		C1276.019,1360.808,1275.17,1362.309,1274.726,1363.934z M1278.045,1352.733c-0.925,0.989-1.192,2.87-2.405,3.367
		c0.182-1.368,1.005-2.57,1.138-3.954c0.673-0.828,1.331-1.667,1.961-2.528c0.005-0.363,0.021-1.09,0.032-1.453l0.668,0.059
		C1279.161,1349.18,1278.216,1352.183,1278.045,1352.733z M1277.735,1344.589
		C1279.482,1344.664,1276.906,1346.198,1277.735,1344.589L1277.735,1344.589z M1271.937,1341.154c-0.15,1.063-0.54,2.068-1.24,2.907
		c-2.672-6.461,9.304-17.882,27.093-45.299c0.326-0.502,0.892-0.721,1.491-0.657c1.523,25.208-2.789,29.495-15.956,37.978
		C1270.929,1344.788,1273.157,1341.996,1271.937,1341.154z M1286.771,1364.062c-0.272,0.208-0.812,0.625-1.085,0.834
		c-0.04-2.668-0.169-3.126,1.464-7.385c0.219-2.725,2.672-4.75,2.367-7.572c0.492-0.486,0.999-0.962,1.528-1.411
		c-0.021-0.887-0.021-1.753-0.005-2.597c0.262,0.198,0.796,0.599,1.063,0.796l-0.139-0.379c-0.887-1.133,0.064-2.303,0.647-3.281
		c0.032,1.224,0.027,2.469-0.032,3.714c-0.257,0.674-2.155,7.331-2.207,7.545c-0.561,0.999-0.962,2.073-1.074,3.228
		c-0.492,0.673-0.967,1.357-1.432,2.057c-0.011,0.31-0.027,0.93-0.037,1.24c-0.267,0.214-0.796,0.652-1.058,0.871
		C1286.755,1362.48,1286.755,1363.261,1286.771,1364.062z M1281.235,1358.35c-0.267-0.016-0.802-0.043-1.069-0.054
		c0.358-0.802,0.743-1.587,1.144-2.356c0.059-0.273,0.166-0.818,0.219-1.09c3.135-5.833,2.995-6.485,3.158-7.588
		c0.246-0.208,0.743-0.636,0.989-0.85c0.027-0.283,0.075-0.85,0.101-1.133c0.951-1.063,1.619-2.362,1.646-3.805
		c0.55-1.149,1.154-2.271,2.009-3.217c0.049,2.502-0.137,2.339-0.583,4.403c-0.492,0.689-0.983,1.379-1.48,2.068
		c-0.021,0.32-0.064,0.962-0.086,1.282c-0.214,0.016-0.647,0.043-0.866,0.059c-0.47,2.357-2.228,4.232-2.485,6.653
		C1282.731,1354.433,1281.716,1356.298,1281.235,1358.35z M1277.692,1406.999l-0.54-0.053c0.262-6.884-0.96-9.123,1.774-18.158
		c0.203,0.005,0.609,0.011,0.812,0.011c0.075-0.353,0.219-1.069,0.294-1.421c0,0-0.922,3.961-1.373,10.137
		c-0.615,1.336-0.428,2.838-0.545,4.275C1277.387,1403.424,1277.729,1405.252,1277.692,1406.999z M1291.164,1386.613
		c-1.256,5.535-2.375,4.445-2.891,9.116c-0.24,0.011-0.711,0.032-0.946,0.043c-0.016,0.331-0.048,0.999-0.064,1.336
		c-0.331,0.492-0.652,1.005-0.957,1.534c-0.306,1.954-0.621,1.67-1.261,4.307c-1.47,0.764-2.127,2.346-2.966,3.677
		c-1.215,4.274-0.879,2.153-1.272,4.382c-0.705,1.213-1.144,2.8-2.683,3.179c0.037-1.282,0.647-2.549,0.289-3.81
		c0.422-0.663,0.85-1.314,1.288-1.95c-0.307-0.419,1.631-17.486,1.71-17.998c-0.357-2.616,3.917-16.634,7.759-21.225
		c0.123-0.508,0.262-0.989,0.422-1.453c0.497-0.46,0.962-0.962,1.544-1.32c1.571,0.198,3.131,0.529,4.713,0.807
		c0.005-0.251,0.005-0.753,0.011-1.01c0.273,0.193,0.823,0.567,1.101,0.753c0.892-0.016,1.79-0.027,2.72-0.011
		c0.075,0.262,0.23,0.786,0.31,1.047c4.136-2.094,3.095-0.883,4.409,1.047C1303.477,1370.325,1291.602,1385.799,1291.164,1386.613z
		 M1302.61,1374.605c0.62-1.742,1.945-3.324,3.554-4.227C1305.447,1372.121,1304.128,1373.515,1302.61,1374.605z M1308.028,1364.458
		c1.357-2.239,2.64-4.569,4.537-6.407C1312.365,1359.298,1309.768,1363.904,1308.028,1364.458z M1307.125,1361.54
		c-1.918,0.844-3.848,1.673-5.691,2.667c-1.967,0.059-7.986,0.025-10.313-1.405c0.083-0.341,6.449-22.603,6.829-22.818
		c-0.005-2.886,0.016-5.782,0.668-8.603c1.224-0.615,1.39-2.196,2.528-2.886c2.389-1.475,4.708-3.083,6.803-4.964
		c0.529,0.144,1.069,0.31,1.63,0.502c0.176-0.144,0.529-0.433,0.705-0.572c-0.313,6.279,4.539,25.042,4.58,28.354
		C1311.39,1353.414,1307.819,1360.54,1307.125,1361.54z M1315.681,1349.997c0.139-1.817,0.379-3.634-0.144-5.408
		c-0.241-0.214-0.716-0.641-0.957-0.86c-0.032-1.074-0.053-2.137-0.112-3.185c-0.234-0.499-0.359-8.034-1.32-11.249
		c1.127-3.848-0.818-8.32,1.609-11.81c0.376-0.236,6.486-5.448,7.059-6.455c1.069-0.625,2.137-1.256,3.185-1.929
		c1.555-2.025,2.677-4.43,4.67-6.071c-0.411,1.576-1.176,3.057-2.218,4.313c-0.016,3.292-0.866,6.53-0.609,9.843
		c-0.657-0.016-1.299-0.011-1.924,0.011c-1.662,1.523-2.96,3.361-4.425,5.061c-0.064,0.663-0.107,1.341-0.128,2.036
		C1320.742,1325.298,1321.369,1346.002,1315.681,1349.997z M1328.917,1330.236c-2.228,1.726-2.805,4.836-5.274,6.391
		c-0.021-1.448-0.166-2.934,0.385-4.297c0.251-3.126,0.967-6.188,1.87-9.175c1.25-0.08,2.517-0.139,3.789-0.182
		C1330.68,1327.539,1329.405,1327.425,1328.917,1330.236z M1367.59,1360.53c-0.203,0.256-0.62,0.78-0.823,1.037
		c-3.139-0.025-2.331-0.013-5.039-0.625c-0.203-0.224-0.609-0.673-0.812-0.898C1365.495,1358.816,1362.313,1360.464,1367.59,1360.53
		z M1365.586,1357.382c-2.53-0.462-1.855-0.286-3.767-1.106c-0.326-0.016-0.978-0.048-1.304-0.064
		C1357.602,1353.636,1364.246,1353.303,1365.586,1357.382z M1343.169,1306.366c0.347-0.572,0.711-1.128,1.09-1.672
		c0.598,2.255,2.324,4.238,2.25,6.642c-1.17,4.28,0.059,8.673,0.235,13.007c0.54,1.336,0.385,2.811,0.524,4.243
		c0.665,1.745,1.738,16.993,1.715,17.549c-0.374,0.059-1.117,0.187-1.491,0.251c-0.021-0.422-0.053-1.272-0.075-1.694
		c-0.86-0.887-1.411-1.993-1.705-3.163c-0.203-0.15-0.62-0.454-0.823-0.604C1341.136,1334.556,1343.837,1308.441,1343.169,1306.366z
		 M1341.299,1343.072c1.646,1.144,2.538,3.019,3.757,4.569c1.705,0.15,2.057,2.255,3.361,3.142c0.037,1.266,0.085,2.538,0.182,3.826
		c3.241,5.305,1.718,26.342,19.531,41.628c0.208,1.079,0.47,2.164,0.876,3.217c-1.774-0.454-3.318,1.86-4.857,0.465
		c-6.138,2.625-13.701,0.944-15.609-0.08C1335.642,1388.764,1340.163,1382.307,1341.299,1343.072z M1371.496,1403.814
		c-0.695,0.502-1.389,0.999-2.084,1.496c-3.288,0.71-1.658,0.565-5.504,0.593c-0.214,0.251-0.652,0.748-0.866,0.999
		c-1.893,0.393-4.701,0.886-5.044,0.999c-0.075-0.064-0.224-0.198-0.299-0.262c-2.196,1.063-4.531-0.406-6.792,0.278
		c-2.576-0.075-5.723,0.908-7.786-1.058c-2.17-1.165-3.548-3.318-4.788-5.349c-1.031-4.115-3.041-8.032-3.073-12.349
		c-0.433-1.32-0.337-2.747-0.882-4.008c0.369-1.491,0.582-3.014,0.422-4.531c-0.577-0.86-0.556-1.849-0.192-2.757
		c-0.208-1.293-0.353-2.586-0.609-3.848c0.203-0.684,0.428-1.347,0.668-1.993c-0.484-1.528-0.611-9.173,0.064-10.832
		c0.107-1.272,0.059-2.565,0.545-3.751c0.075-1.021,0.139-2.025,0.24-3.019c0.63-1.475,0.385-3.11,0.422-4.654l0.529,0.032
		c-0.037,0.479-0.63,22.053-0.786,23.235c1.274,7.364-2.277,10.332,5.237,24.688c7.31,6.823,6.649,4.778,12.098,7.957
		c0.695-0.102,1.405-0.187,2.132-0.267c0.198,0.283,0.411,0.593,0.652,0.919c0.972-0.377,6.132-1.51,7.305-1.101
		c0.652-0.46,1.304-0.919,1.961-1.384c0.481-0.096,0.989-0.171,1.512-0.23c0,0,6.753-0.978,6.754-0.978
		c0.005,0.272,0.005,0.823,0.005,1.095C1372.709,1403.74,1372.095,1403.766,1371.496,1403.814z M1394.271,1387.366
		c-1.229,0.989-2.25,2.26-3.821,2.731c-0.011,0.267-0.021,0.812-0.032,1.079c-0.876,0.358-1.518,1.01-1.876,1.886
		c-0.32,0-0.951,0.011-1.272,0.016c-0.016,0.262-0.053,0.796-0.075,1.063c-0.342,0-1.031,0.005-1.373,0.011
		c-0.668,0.695-1.331,1.395-1.977,2.111c-0.315,0.005-0.946,0.021-1.261,0.027c-0.214,0.262-0.647,0.791-0.866,1.058
		c-0.62-0.016-1.229-0.011-1.817,0.011c-0.39-0.524-0.759-1.031-1.112-1.523c-1.202,0.198-2.394,0.374-3.58,0.46
		c-9.683-4.985-16.577-15.387-16.667-17.399c-1.117-2.448-1.774-5.061-2.378-7.663c-1.721-2.752-1.395-6.284-1.475-9.394
		c0.63,0.337,1.197,0.849,1.689,1.421c1.229,0.588,2.383,1.347,3.698,1.806c0.107,0.321,0.235,0.657,0.385,1.015
		c2.47,0.626,15.244,4.281,16.272,4.804c7.221,1.38,14.439,2.441,20.055-0.262c0.192,0.278,0.577,0.834,0.775,1.112
		c2.031-0.171,4.147-0.657,6.161-0.037l-0.011,1.298c0.47-0.246,0.989-1.496,1.395-0.203c-0.641,0.55-1.24,1.138-1.822,1.742
		c-0.021,0.299-0.064,0.892-0.086,1.186c-1.56,1.892-2.736,4.141-4.777,5.584c-1.459,1.806-3.078,3.468-4.772,5.05
		C1393.806,1386.607,1394.116,1387.115,1394.271,1387.366z M1422.005,1369.604c0.107,0.224,0.321,0.673,0.428,0.903
		c-0.967,0.855-2.106,1.534-2.88,2.592c-4.563,3.075-5.255,5.507-8.155,5.247c-2.298,1.021-3.96,3.089-6.359,3.88
		c-5.103,5.534-6.307,7.181-8.945,7.23c0.924-0.695,2.004-1.379,1.972-2.688c1.913-0.994,3.228-2.693,4.072-4.644
		c0.021-0.262,0.075-0.791,0.096-1.053c3.318-1.56,3.586-5.723,6.076-8.122c1.015-0.55,2.298-0.946,2.586-2.223
		c2.285,1.598,7.258-3.01,12.894-3.741c0.118,0.593,0.246,1.197,0.39,1.822C1423.427,1369.043,1422.721,1369.326,1422.005,1369.604z
		 M1429.145,1359.381c-0.273,0.011-0.818,0.032-1.096,0.043c-0.849,0.871-1.705,1.742-2.538,2.629
		c-0.288,0.021-0.86,0.064-1.149,0.086c-0.876,0.679-1.785,1.32-2.645,2.009c-0.711,0.037-1.4,0.096-2.068,0.187
		c-0.908,0.508-1.945,0.513-2.843,0.037c-0.246,0.123-0.732,0.379-0.973,0.502c1.938-5.408,8.23-7.716,10.666-11.088
		c3.367-2.538,5.734-6.274,9.581-8.213c0.283-0.037,0.844-0.107,1.128-0.144c1.031-0.588,2.089-1.133,3.185-1.625
		c-0.283,0.871-0.871,1.544-1.672,1.977C1438.068,1348.21,1429.749,1358.38,1429.145,1359.381z M1446.33,1350.772
		c5.17-4.685,3.482-2.861,9.533-7.038c-2.061,4.36-5.709,7.998-7.022,8.08c-0.123-0.102-0.363-0.31-0.486-0.411
		c0.19,1.678-1.371,1.87-3.163,2.228c-3.244,1.416-6.103,3.516-8.416,6.193c-0.914,0.112-1.806,0.31-2.634,0.657
		c0.31-0.978,0.598-1.95,0.812-2.939c0.802-1.261,1.539-2.565,2.426-3.767c0.027-0.278,0.085-0.834,0.112-1.112
		c0.369-0.598,0.737-1.192,1.192-1.721C1443.094,1351.909,1444.255,1351.28,1446.33,1350.772z M1451.289,1329.381
		c-0.812-0.636-1.753,0.16-1.769,1.069c-1.747,1.785-3.383,3.714-5.429,5.167c-3.06,3.977-1.179,3.34-7.738,7.497
		c0.16-0.379,0.481-1.133,0.641-1.507c-2.055,1.486-16.319,15.156-17.319,16.069c-0.855,0.219-1.694,0.475-2.506,0.748l0.011-0.342
		c0,0,17.37-20.957,20.018-22.984c0.492-0.882,1.229-1.486,2.287-1.496c1.229-2.18,3.559-3.254,5.563-4.574
		c0.182-0.278,0.545-0.839,0.727-1.117c0.502-0.048,1.026-0.08,1.576-0.086c2.932-2.25,5.862-4.687,5.867-4.692
		c0.283-0.032,0.855-0.086,1.138-0.118c1.833-0.983,3.27-2.645,5.258-3.345c-2.528,2.982-5.456,5.595-8.192,8.379
		C1451.391,1328.382,1451.321,1329.05,1451.289,1329.381z M1451.669,1331.294c1.416-1.453,2.442-3.196,3.58-4.841
		c2.327-1.654,8.772-7.987,9.758-9.768c0.23-0.016,0.684-0.043,0.914-0.053C1464.968,1317.633,1457.892,1329.355,1451.669,1331.294z
		"/>
	<path d="M965.499,317.002c0.518,0.411,1.042,0.828,1.582,1.25c-0.321-1.181-0.834-2.293-1.384-3.372
		c-0.182,0.155-0.54,0.47-0.716,0.631C965.109,315.885,965.371,316.628,965.499,317.002z"/>
	<path d="M1012.717,1310.55c1-0.939,0.427-1.06-6.551-8.363C1005.474,1304.274,1007.06,1305.436,1012.717,1310.55z"/>
	<path d="M984.005,1305.425c0.016,0.31,0.053,0.935,0.07,1.25c1.918,0.63,3.933,0.946,5.825,1.726
		C990.371,1305.527,988.071,1307.428,984.005,1305.425z"/>
	<path d="M1071.626,1355.747c0.096,0.684,0.492,0.807,1.181,0.374C1072.684,1355.405,1072.294,1355.277,1071.626,1355.747z"/>
	<path d="M1300.365,1363.218C1300.483,1364.976,1301.91,1362.331,1300.365,1363.218L1300.365,1363.218z"/>
	<path d="M1283.105,1384.78c-0.497,0.62-0.363,0.978,0.39,1.085C1283.96,1385.213,1283.832,1384.855,1283.105,1384.78z"/>
	<path d="M1379.998,1395.793C1380.062,1397.551,1381.58,1394.96,1379.998,1395.793L1379.998,1395.793z"/>
	<path d="M1211.494,1437.133c0.721,0.55,1.395,1.192,2.02,1.892c-0.791-2.827-0.256-5.835-1.176-8.598
		c-0.707-12.167-0.062-11.407-0.775-14.423c-0.63-2.624,2.378-5.664-0.096-7.791
		C1208.894,1419.166,1210.164,1425.259,1211.494,1437.133z"/>
</g>
</svg>
